<?xml version="1.0" encoding="UTF-8"?>
<svg version="1.1" xmlns="http://www.w3.org/2000/svg" width="500" height="500">
<path d="M0 0 C165 0 330 0 500 0 C500 165 500 330 500 500 C335 500 170 500 0 500 C0 335 0 170 0 0 Z " fill="#FEFEFE" transform="translate(0,0)"/>
<path d="M0 0 C7.32081421 4.29063372 11.24907443 11.03978134 15.24609375 18.31640625 C15.64699219 17.73632812 16.04789062 17.15625 16.4609375 16.55859375 C22.23137667 8.62914673 28.53895605 3.3817547 38.24609375 1.31640625 C36.12717853 3.43532147 34.01104054 5.53337844 31.80859375 7.56640625 C28.72842758 10.87195044 26.51397239 14.42723564 24.24609375 18.31640625 C24.57609375 18.64640625 24.90609375 18.97640625 25.24609375 19.31640625 C25.88546875 18.59453125 26.52484375 17.87265625 27.18359375 17.12890625 C34.54452428 9.8095629 43.69681762 7.26286361 53.80859375 7.06640625 C58.6758553 7.13432153 62.69350618 7.62242018 67.24609375 9.31640625 C67.24609375 9.64640625 67.24609375 9.97640625 67.24609375 10.31640625 C66.18390625 10.49816406 65.12171875 10.67992188 64.02734375 10.8671875 C55.89950544 12.29772547 48.35159698 13.69466135 40.93359375 17.50390625 C39.24609375 18.31640625 39.24609375 18.31640625 36.24609375 18.31640625 C36.24609375 18.97640625 36.24609375 19.63640625 36.24609375 20.31640625 C35.75109375 20.81140625 35.75109375 20.81140625 35.24609375 21.31640625 C36.82390625 20.82140625 36.82390625 20.82140625 38.43359375 20.31640625 C50.03170742 17.48359265 59.46560226 19.42390188 69.62109375 25.25390625 C72.31468222 27.37029719 74.24539526 29.54620835 76.24609375 32.31640625 C73.27609375 31.32640625 73.27609375 31.32640625 70.24609375 30.31640625 C70.24609375 30.97640625 70.24609375 31.63640625 70.24609375 32.31640625 C70.82915283 32.59315186 71.41221191 32.86989746 72.01293945 33.1550293 C74.15363107 34.26832 76.02262056 35.48707528 77.9765625 36.8984375 C78.68804443 37.41140381 79.39952637 37.92437012 80.13256836 38.45288086 C80.89190674 39.00596924 81.65124512 39.55905762 82.43359375 40.12890625 C83.23095947 40.70713135 84.0283252 41.28535645 84.84985352 41.88110352 C90.8893485 46.28066853 96.83757871 50.7904495 102.75610352 55.35083008 C108.2454331 59.57344031 113.79344231 63.71125912 119.37109375 67.81640625 C120.54369751 68.67963501 120.54369751 68.67963501 121.73999023 69.56030273 C125.2373903 72.12838178 128.74686682 74.67081127 132.30078125 77.16015625 C133.27273438 77.87171875 134.2446875 78.58328125 135.24609375 79.31640625 C135.24609375 79.64640625 135.24609375 79.97640625 135.24609375 80.31640625 C132.27609375 80.31640625 129.30609375 80.31640625 126.24609375 80.31640625 C126.24609375 99.45640625 126.24609375 118.59640625 126.24609375 138.31640625 C127.23609375 138.31640625 128.22609375 138.31640625 129.24609375 138.31640625 C129.00379028 136.79720581 129.00379028 136.79720581 128.7565918 135.24731445 C128.03168906 129.66545936 128.06010646 124.14251039 128.06079102 118.52026367 C128.05861055 116.51932678 128.04011063 114.51842951 128.02148438 112.51757812 C127.9996423 97.94891185 127.9996423 97.94891185 130.24609375 91.31640625 C130.90609375 90.65640625 131.56609375 89.99640625 132.24609375 89.31640625 C134.18359375 89.36328125 134.18359375 89.36328125 136.24609375 90.31640625 C147.40778502 106.50085859 149.25203744 127.96087195 149.43359375 147.00390625 C149.44664551 147.78757568 149.45969727 148.57124512 149.47314453 149.37866211 C149.4828846 156.00260357 148.3384663 162.03928861 146.24609375 168.31640625 C148.45061917 169.61496232 150.65932671 170.9052882 152.87109375 172.19140625 C153.48855469 172.55621094 154.10601562 172.92101562 154.7421875 173.296875 C158.47272054 175.45665729 162.0316667 177.25068907 166.24609375 178.31640625 C169.06180806 177.55907663 169.06180806 177.55907663 171.24609375 176.31640625 C171.24609375 176.97640625 171.24609375 177.63640625 171.24609375 178.31640625 C167.75673904 180.64264273 166.34126777 180.56713119 162.24609375 180.31640625 C160.91066436 179.99157207 159.57647824 179.66132075 158.24609375 179.31640625 C157.91609375 179.64640625 157.58609375 179.97640625 157.24609375 180.31640625 C155.24658739 180.36083972 153.24570939 180.3556144 151.24609375 180.31640625 C148.72491609 180.31640625 146.20322087 180.35299828 143.68359375 180.44140625 C140.24609375 180.31640625 140.24609375 180.31640625 137.24609375 178.31640625 C137.24609375 177.65640625 137.24609375 176.99640625 137.24609375 176.31640625 C137.83777344 176.40019531 138.42945313 176.48398437 139.0390625 176.5703125 C143.38421125 177.13029089 146.955845 177.45206033 151.24609375 176.31640625 C152.23609375 176.31640625 153.22609375 176.31640625 154.24609375 176.31640625 C151.99852591 175.1655794 149.74827627 174.02063767 147.49609375 172.87890625 C146.861875 172.55341797 146.22765625 172.22792969 145.57421875 171.89257812 C140.37168772 169.26421609 136.58955036 168.19706161 130.79180908 168.15818787 C129.68405624 168.14839905 128.57630341 168.13861023 127.4349823 168.12852478 C126.22441666 168.12276932 125.01385101 168.11701385 123.76660156 168.11108398 C122.48829971 168.10118439 121.20999786 168.09128479 119.89295959 168.08108521 C116.39126194 168.05407659 112.88955086 168.03304518 109.38780689 168.01308322 C105.72691725 167.99119869 102.0660688 167.96382208 98.4052124 167.93702698 C91.47446336 167.88713344 84.54369142 167.84218224 77.61289763 167.79900461 C69.72175494 167.74960369 61.83065358 167.69469616 53.93955088 167.63932502 C37.70843661 167.52555623 21.47728444 167.4187061 5.24609375 167.31640625 C5.24609375 166.32640625 5.24609375 165.33640625 5.24609375 164.31640625 C7.88609375 164.31640625 10.52609375 164.31640625 13.24609375 164.31640625 C12.91609375 157.71640625 12.58609375 151.11640625 12.24609375 144.31640625 C10.26609375 144.31640625 8.28609375 144.31640625 6.24609375 144.31640625 C6.24609375 142.33640625 6.24609375 140.35640625 6.24609375 138.31640625 C7.89609375 138.31640625 9.54609375 138.31640625 11.24609375 138.31640625 C11.24609375 129.73640625 11.24609375 121.15640625 11.24609375 112.31640625 C9.26609375 112.31640625 7.28609375 112.31640625 5.24609375 112.31640625 C5.24609375 111.65640625 5.24609375 110.99640625 5.24609375 110.31640625 C22.73609375 110.31640625 40.22609375 110.31640625 58.24609375 110.31640625 C58.24609375 109.32640625 58.24609375 108.33640625 58.24609375 107.31640625 C40.75609375 107.31640625 23.26609375 107.31640625 5.24609375 107.31640625 C5.24609375 105.00640625 5.24609375 102.69640625 5.24609375 100.31640625 C6.23609375 99.65640625 7.22609375 98.99640625 8.24609375 98.31640625 C6.76109375 97.32640625 6.76109375 97.32640625 5.24609375 96.31640625 C5.68248781 93.37074635 6.39454502 92.13196679 8.30859375 89.75390625 C10.55721581 87.44394957 10.55721581 87.44394957 10.24609375 84.31640625 C8.59609375 84.97640625 6.94609375 85.63640625 5.24609375 86.31640625 C5.99609375 84.37890625 5.99609375 84.37890625 7.24609375 82.31640625 C9.37109375 81.56640625 9.37109375 81.56640625 11.24609375 81.31640625 C10.91609375 79.66640625 10.58609375 78.01640625 10.24609375 76.31640625 C12.55609375 76.64640625 14.86609375 76.97640625 17.24609375 77.31640625 C16.91609375 75.33640625 16.58609375 73.35640625 16.24609375 71.31640625 C14.76109375 71.81140625 14.76109375 71.81140625 13.24609375 72.31640625 C14.51149427 68.5202047 16.02827806 67.82962437 19.30859375 65.62890625 C20.68724609 64.69498047 20.68724609 64.69498047 22.09375 63.7421875 C22.80402344 63.27167969 23.51429688 62.80117187 24.24609375 62.31640625 C22.37689801 58.30880293 22.37689801 58.30880293 19.24609375 55.31640625 C15.70437397 55.14971307 15.70437397 55.14971307 12.24609375 55.31640625 C11.58609375 54.98640625 10.92609375 54.65640625 10.24609375 54.31640625 C10.07956299 55.20888062 10.07956299 55.20888062 9.90966797 56.11938477 C9.04030758 60.63505843 8.07690122 65.09069305 6.87890625 69.53125 C-1.68030257 101.60144726 -4.00019711 135.30036934 -0.75390625 168.31640625 C0.79490234 168.46335937 0.79490234 168.46335937 2.375 168.61328125 C11.40784827 169.51792881 20.35875506 170.72947919 29.30859375 172.25390625 C30.25871338 172.41149414 31.20883301 172.56908203 32.18774414 172.73144531 C36.64810653 173.51301702 40.8471828 174.44809557 45.1171875 175.96875 C48.39800555 177.12760959 50.75856711 177.60154522 54.24609375 176.94140625 C55.57493064 176.70609138 56.90775189 176.48967372 58.24609375 176.31640625 C58.57609375 176.64640625 58.90609375 176.97640625 59.24609375 177.31640625 C62.44659032 177.48940606 65.17563924 177.22617055 68.24609375 176.31640625 C68.24609375 176.97640625 68.24609375 177.63640625 68.24609375 178.31640625 C64.81933526 180.4251807 62.22000257 180.48198578 58.24609375 180.31640625 C55.64819961 180.31640625 53.05001538 180.34966487 50.453125 180.421875 C48.98828961 180.44966321 47.52344547 180.47699296 46.05859375 180.50390625 C45.34123047 180.52904297 44.62386719 180.55417969 43.88476562 180.58007812 C38.94246422 180.64644744 35.12797614 179.7367763 30.50024414 178.0534668 C26.74275683 176.82484617 22.98402548 176.460068 19.05859375 176.12890625 C18.13844482 176.05067627 17.2182959 175.97244629 16.27026367 175.8918457 C-16.8763377 173.46312549 -49.8798117 176.05322668 -82.75390625 180.31640625 C-68.70851828 170.95281427 -46.25889248 168.90662728 -29.75390625 169.31640625 C-29.02264801 144.64206584 -30.66873226 120.80980118 -38.75390625 97.31640625 C-41.68088549 97.16526435 -41.68088549 97.16526435 -44.75390625 97.31640625 C-48.73886939 101.4436895 -48.94071351 107.85366441 -49.75390625 113.31640625 C-50.41390625 113.31640625 -51.07390625 113.31640625 -51.75390625 113.31640625 C-52.30010449 104.67433636 -52.64156577 98.0872147 -46.75390625 91.31640625 C-54.1756972 96.47042774 -56.67236198 104.16998336 -59.75390625 112.31640625 C-60.08390625 112.31640625 -60.41390625 112.31640625 -60.75390625 112.31640625 C-61.50752018 104.44532739 -59.99092824 98.99292574 -55.75390625 92.31640625 C-54.76390625 91.32640625 -54.76390625 91.32640625 -53.75390625 90.31640625 C-61.00418018 92.59506377 -64.64077146 98.32298127 -68.75390625 104.31640625 C-69.94308846 100.56590851 -69.46110179 98.093363 -67.96875 94.4140625 C-64.68046824 88.7362255 -59.69883111 85.6943762 -53.75390625 83.31640625 C-58.70390625 83.31640625 -63.65390625 83.31640625 -68.75390625 83.31640625 C-63.78710678 78.34960678 -63.78710678 78.34960678 -59.71484375 78.21875 C-58.53148437 78.23035156 -57.348125 78.24195313 -56.12890625 78.25390625 C-54.94039062 78.26292969 -53.751875 78.27195312 -52.52734375 78.28125 C-51.61210937 78.29285156 -50.696875 78.30445313 -49.75390625 78.31640625 C-54.79530789 75.50107806 -58.980117 73.79755535 -64.75390625 73.31640625 C-64.75390625 72.98640625 -64.75390625 72.65640625 -64.75390625 72.31640625 C-51.12064885 71.57836525 -51.12064885 71.57836525 -44.75390625 76.31640625 C-45.74390625 74.33640625 -46.73390625 72.35640625 -47.75390625 70.31640625 C-43.76949753 71.60864692 -42.11762152 72.90600182 -39.75390625 76.31640625 C-39.30660156 75.76210937 -38.85929687 75.2078125 -38.3984375 74.63671875 C-32.08791677 67.07485809 -32.08791677 67.07485809 -27.75390625 66.31640625 C-23.94140625 66.69140625 -23.94140625 66.69140625 -20.75390625 67.31640625 C-22.75095613 69.31345613 -24.09299862 70.00449438 -26.62890625 71.12890625 C-30.32850911 72.91144217 -32.44440949 74.8521611 -34.75390625 78.31640625 C-34.15578125 77.82140625 -33.55765625 77.32640625 -32.94140625 76.81640625 C-28.27490508 74.6204057 -23.82958057 74.57457693 -18.75390625 75.31640625 C-16.06640625 77.31640625 -16.06640625 77.31640625 -14.75390625 79.31640625 C-15.46675781 79.35378906 -16.17960937 79.39117187 -16.9140625 79.4296875 C-22.85324855 79.83735707 -27.44512372 80.60302851 -32.75390625 83.31640625 C-32.10164063 83.46335937 -31.449375 83.6103125 -30.77734375 83.76171875 C-24.38153763 85.40312032 -21.01830394 87.26646162 -16.75390625 92.31640625 C-17.08390625 92.97640625 -17.41390625 93.63640625 -17.75390625 94.31640625 C-18.37265625 93.86265625 -18.99140625 93.40890625 -19.62890625 92.94140625 C-23.84696495 90.74801573 -28.09366211 90.08557276 -32.75390625 89.31640625 C-33.90759908 94.41188291 -33.92005387 97.51121297 -31.9609375 102.3828125 C-29.76090098 108.15152969 -28.15365894 113.94798151 -26.69140625 119.94140625 C-26.43464111 120.98901123 -26.17787598 122.03661621 -25.91333008 123.1159668 C-22.26157893 138.26221062 -20.24989629 152.73547764 -19.75390625 168.31640625 C-18.43390625 168.31640625 -17.11390625 168.31640625 -15.75390625 168.31640625 C-15.78581055 166.36686035 -15.78581055 166.36686035 -15.81835938 164.37792969 C-15.81511456 159.625436 -15.36354748 155.03599723 -14.72265625 150.33203125 C-14.6114444 149.49073166 -14.50023254 148.64943207 -14.38565063 147.78263855 C-14.01810395 145.0424644 -13.63809305 142.304295 -13.25390625 139.56640625 C-13.12207947 138.62177521 -12.99025269 137.67714417 -12.85443115 136.70388794 C-3.97161133 73.75181642 -3.97161133 73.75181642 7.24609375 51.31640625 C5.59609375 50.65640625 3.94609375 49.99640625 2.24609375 49.31640625 C2.24609375 47.00640625 2.24609375 44.69640625 2.24609375 42.31640625 C-8.88904712 44.22672387 -19.57902929 47.37357196 -29.75390625 52.31640625 C-28.48369221 46.52987562 -25.37578372 42.85594532 -20.75390625 39.31640625 C-18.52734375 38.6171875 -18.52734375 38.6171875 -16.75390625 38.31640625 C-16.75390625 37.65640625 -16.75390625 36.99640625 -16.75390625 36.31640625 C-15.48333443 35.83654658 -14.21243777 35.35754695 -12.94140625 34.87890625 C-11.87986328 34.47865234 -11.87986328 34.47865234 -10.796875 34.0703125 C-9.12718229 33.45415439 -7.44232921 32.8792139 -5.75390625 32.31640625 C-5.42390625 30.66640625 -5.09390625 29.01640625 -4.75390625 27.31640625 C-15.31178219 22.5774849 -24.2782428 22.14164995 -35.75390625 22.31640625 C-29.852411 16.31403074 -25.69277013 13.8743023 -17.19140625 13.62890625 C-8.39821321 13.59184327 -2.21448094 16.9185938 5.24609375 21.31640625 C5.57609375 21.31640625 5.90609375 21.31640625 6.24609375 21.31640625 C2.4826449 11.67256857 -6.39978772 6.85256766 -15.31640625 2.62890625 C-18.51184137 1.40883102 -21.36932722 0.72915979 -24.75390625 0.31640625 C-18.71306497 -5.72443503 -7.00679232 -3.21751903 0 0 Z " fill="#1A1A1A" transform="translate(200.75390625,112.68359375)"/>
<path d="M0 0 C7.32081421 4.29063372 11.24907443 11.03978134 15.24609375 18.31640625 C15.64699219 17.73632812 16.04789062 17.15625 16.4609375 16.55859375 C22.23137667 8.62914673 28.53895605 3.3817547 38.24609375 1.31640625 C36.12717853 3.43532147 34.01104054 5.53337844 31.80859375 7.56640625 C28.72842758 10.87195044 26.51397239 14.42723564 24.24609375 18.31640625 C24.57609375 18.64640625 24.90609375 18.97640625 25.24609375 19.31640625 C25.88546875 18.59453125 26.52484375 17.87265625 27.18359375 17.12890625 C34.54452428 9.8095629 43.69681762 7.26286361 53.80859375 7.06640625 C58.6758553 7.13432153 62.69350618 7.62242018 67.24609375 9.31640625 C67.24609375 9.64640625 67.24609375 9.97640625 67.24609375 10.31640625 C66.18390625 10.49816406 65.12171875 10.67992188 64.02734375 10.8671875 C55.89950544 12.29772547 48.35159698 13.69466135 40.93359375 17.50390625 C39.24609375 18.31640625 39.24609375 18.31640625 36.24609375 18.31640625 C36.24609375 18.97640625 36.24609375 19.63640625 36.24609375 20.31640625 C35.75109375 20.81140625 35.75109375 20.81140625 35.24609375 21.31640625 C36.82390625 20.82140625 36.82390625 20.82140625 38.43359375 20.31640625 C50.03170742 17.48359265 59.46560226 19.42390188 69.62109375 25.25390625 C72.31468222 27.37029719 74.24539526 29.54620835 76.24609375 32.31640625 C70.49609375 30.44140625 70.49609375 30.44140625 68.24609375 29.31640625 C68.24609375 30.30640625 68.24609375 31.29640625 68.24609375 32.31640625 C66.74609375 34.00390625 66.74609375 34.00390625 65.24609375 35.31640625 C66.23609375 34.98640625 67.22609375 34.65640625 68.24609375 34.31640625 C68.24609375 37.94640625 68.24609375 41.57640625 68.24609375 45.31640625 C68.90609375 45.31640625 69.56609375 45.31640625 70.24609375 45.31640625 C70.24609375 41.68640625 70.24609375 38.05640625 70.24609375 34.31640625 C75.88339945 37.0469762 75.88339945 37.0469762 78.24609375 39.31640625 C78.9519122 42.4199315 78.73671565 45.18869163 78.24609375 48.31640625 C76.92609375 47.65640625 75.60609375 46.99640625 74.24609375 46.31640625 C75.23609375 48.29640625 75.23609375 48.29640625 76.24609375 50.31640625 C73.77109375 50.81140625 73.77109375 50.81140625 71.24609375 51.31640625 C71.72046875 51.66703125 72.19484375 52.01765625 72.68359375 52.37890625 C74.93390676 55.16929438 74.87627546 57.80313252 75.24609375 61.31640625 C75.43171875 61.95578125 75.61734375 62.59515625 75.80859375 63.25390625 C76.51760974 66.59641021 76.30292541 69.90650676 76.24609375 73.31640625 C75.81296875 72.67703125 75.37984375 72.03765625 74.93359375 71.37890625 C73.33370198 69.04894622 73.33370198 69.04894622 70.24609375 68.31640625 C70.24609375 71.28640625 70.24609375 74.25640625 70.24609375 77.31640625 C73.21609375 77.64640625 76.18609375 77.97640625 79.24609375 78.31640625 C79.24609375 73.69640625 79.24609375 69.07640625 79.24609375 64.31640625 C79.57609375 64.31640625 79.90609375 64.31640625 80.24609375 64.31640625 C80.24609375 68.60640625 80.24609375 72.89640625 80.24609375 77.31640625 C82.88609375 76.98640625 85.52609375 76.65640625 88.24609375 76.31640625 C87.24609375 78.31640625 87.24609375 78.31640625 84.87109375 79.44140625 C79.8287319 80.65852808 73.0440596 81.71538918 68.24609375 79.31640625 C66.54245553 79.09018544 64.83280674 78.90752152 63.12109375 78.75390625 C61.75597656 78.62822266 61.75597656 78.62822266 60.36328125 78.5 C59.66460937 78.43941406 58.9659375 78.37882812 58.24609375 78.31640625 C58.24609375 79.96640625 58.24609375 81.61640625 58.24609375 83.31640625 C68.47609375 83.31640625 78.70609375 83.31640625 89.24609375 83.31640625 C89.24609375 85.62640625 89.24609375 87.93640625 89.24609375 90.31640625 C75.71609375 90.31640625 62.18609375 90.31640625 48.24609375 90.31640625 C48.24609375 88.00640625 48.24609375 85.69640625 48.24609375 83.31640625 C50.22609375 83.31640625 52.20609375 83.31640625 54.24609375 83.31640625 C54.24609375 82.32640625 54.24609375 81.33640625 54.24609375 80.31640625 C53.47523438 80.32800781 52.704375 80.33960938 51.91015625 80.3515625 C50.40582031 80.36509766 50.40582031 80.36509766 48.87109375 80.37890625 C47.87335938 80.39050781 46.875625 80.40210938 45.84765625 80.4140625 C43.24609375 80.31640625 43.24609375 80.31640625 41.24609375 79.31640625 C41.17261719 80.23873047 41.17261719 80.23873047 41.09765625 81.1796875 C41.02289063 81.98792969 40.948125 82.79617187 40.87109375 83.62890625 C40.80148438 84.42941406 40.731875 85.22992188 40.66015625 86.0546875 C40.24609375 88.31640625 40.24609375 88.31640625 38.24609375 91.31640625 C36.92380186 88.67182246 37.14932181 86.63879324 37.18359375 83.69140625 C37.19261719 82.68851562 37.20164062 81.685625 37.2109375 80.65234375 C37.22253906 79.88148438 37.23414063 79.110625 37.24609375 78.31640625 C36.29734375 78.35765625 35.34859375 78.39890625 34.37109375 78.44140625 C31.24609375 78.31640625 31.24609375 78.31640625 29.24609375 76.31640625 C28.92275812 73.07937573 28.78167509 69.88727655 28.6796875 66.63867188 C28.6003499 64.86047476 28.43003519 63.08684263 28.24609375 61.31640625 C27.58609375 60.98640625 26.92609375 60.65640625 26.24609375 60.31640625 C25.91609375 60.97640625 25.58609375 61.63640625 25.24609375 62.31640625 C24.97796875 61.81109375 24.70984375 61.30578125 24.43359375 60.78515625 C23.17183189 58.6932879 22.02106685 57.00241888 20.24609375 55.31640625 C17.39617824 54.71699763 15.19544611 55.02630602 12.24609375 55.31640625 C11.58609375 54.98640625 10.92609375 54.65640625 10.24609375 54.31640625 C10.07956299 55.20888062 10.07956299 55.20888062 9.90966797 56.11938477 C9.04030758 60.63505843 8.07690122 65.09069305 6.87890625 69.53125 C-1.68030257 101.60144726 -4.00019711 135.30036934 -0.75390625 168.31640625 C0.79490234 168.46335937 0.79490234 168.46335937 2.375 168.61328125 C11.40784827 169.51792881 20.35875506 170.72947919 29.30859375 172.25390625 C30.25871338 172.41149414 31.20883301 172.56908203 32.18774414 172.73144531 C36.64810653 173.51301702 40.8471828 174.44809557 45.1171875 175.96875 C48.39800555 177.12760959 50.75856711 177.60154522 54.24609375 176.94140625 C55.57493064 176.70609138 56.90775189 176.48967372 58.24609375 176.31640625 C58.57609375 176.64640625 58.90609375 176.97640625 59.24609375 177.31640625 C62.44659032 177.48940606 65.17563924 177.22617055 68.24609375 176.31640625 C68.24609375 176.97640625 68.24609375 177.63640625 68.24609375 178.31640625 C64.81933526 180.4251807 62.22000257 180.48198578 58.24609375 180.31640625 C55.64819961 180.31640625 53.05001538 180.34966487 50.453125 180.421875 C48.98828961 180.44966321 47.52344547 180.47699296 46.05859375 180.50390625 C45.34123047 180.52904297 44.62386719 180.55417969 43.88476562 180.58007812 C38.94246422 180.64644744 35.12797614 179.7367763 30.50024414 178.0534668 C26.74275683 176.82484617 22.98402548 176.460068 19.05859375 176.12890625 C18.13844482 176.05067627 17.2182959 175.97244629 16.27026367 175.8918457 C-16.8763377 173.46312549 -49.8798117 176.05322668 -82.75390625 180.31640625 C-68.70851828 170.95281427 -46.25889248 168.90662728 -29.75390625 169.31640625 C-29.02264801 144.64206584 -30.66873226 120.80980118 -38.75390625 97.31640625 C-41.68088549 97.16526435 -41.68088549 97.16526435 -44.75390625 97.31640625 C-48.73886939 101.4436895 -48.94071351 107.85366441 -49.75390625 113.31640625 C-50.41390625 113.31640625 -51.07390625 113.31640625 -51.75390625 113.31640625 C-52.30010449 104.67433636 -52.64156577 98.0872147 -46.75390625 91.31640625 C-54.1756972 96.47042774 -56.67236198 104.16998336 -59.75390625 112.31640625 C-60.08390625 112.31640625 -60.41390625 112.31640625 -60.75390625 112.31640625 C-61.50752018 104.44532739 -59.99092824 98.99292574 -55.75390625 92.31640625 C-54.76390625 91.32640625 -54.76390625 91.32640625 -53.75390625 90.31640625 C-61.00418018 92.59506377 -64.64077146 98.32298127 -68.75390625 104.31640625 C-69.94308846 100.56590851 -69.46110179 98.093363 -67.96875 94.4140625 C-64.68046824 88.7362255 -59.69883111 85.6943762 -53.75390625 83.31640625 C-58.70390625 83.31640625 -63.65390625 83.31640625 -68.75390625 83.31640625 C-63.78710678 78.34960678 -63.78710678 78.34960678 -59.71484375 78.21875 C-58.53148437 78.23035156 -57.348125 78.24195313 -56.12890625 78.25390625 C-54.94039062 78.26292969 -53.751875 78.27195312 -52.52734375 78.28125 C-51.61210937 78.29285156 -50.696875 78.30445313 -49.75390625 78.31640625 C-54.79530789 75.50107806 -58.980117 73.79755535 -64.75390625 73.31640625 C-64.75390625 72.98640625 -64.75390625 72.65640625 -64.75390625 72.31640625 C-51.12064885 71.57836525 -51.12064885 71.57836525 -44.75390625 76.31640625 C-45.74390625 74.33640625 -46.73390625 72.35640625 -47.75390625 70.31640625 C-43.76949753 71.60864692 -42.11762152 72.90600182 -39.75390625 76.31640625 C-39.30660156 75.76210937 -38.85929687 75.2078125 -38.3984375 74.63671875 C-32.08791677 67.07485809 -32.08791677 67.07485809 -27.75390625 66.31640625 C-23.94140625 66.69140625 -23.94140625 66.69140625 -20.75390625 67.31640625 C-22.75095613 69.31345613 -24.09299862 70.00449438 -26.62890625 71.12890625 C-30.32850911 72.91144217 -32.44440949 74.8521611 -34.75390625 78.31640625 C-34.15578125 77.82140625 -33.55765625 77.32640625 -32.94140625 76.81640625 C-28.27490508 74.6204057 -23.82958057 74.57457693 -18.75390625 75.31640625 C-16.06640625 77.31640625 -16.06640625 77.31640625 -14.75390625 79.31640625 C-15.46675781 79.35378906 -16.17960937 79.39117187 -16.9140625 79.4296875 C-22.85324855 79.83735707 -27.44512372 80.60302851 -32.75390625 83.31640625 C-32.10164063 83.46335937 -31.449375 83.6103125 -30.77734375 83.76171875 C-24.38153763 85.40312032 -21.01830394 87.26646162 -16.75390625 92.31640625 C-17.08390625 92.97640625 -17.41390625 93.63640625 -17.75390625 94.31640625 C-18.37265625 93.86265625 -18.99140625 93.40890625 -19.62890625 92.94140625 C-23.84696495 90.74801573 -28.09366211 90.08557276 -32.75390625 89.31640625 C-33.90759908 94.41188291 -33.92005387 97.51121297 -31.9609375 102.3828125 C-29.76090098 108.15152969 -28.15365894 113.94798151 -26.69140625 119.94140625 C-26.43464111 120.98901123 -26.17787598 122.03661621 -25.91333008 123.1159668 C-22.26157893 138.26221062 -20.24989629 152.73547764 -19.75390625 168.31640625 C-18.43390625 168.31640625 -17.11390625 168.31640625 -15.75390625 168.31640625 C-15.78581055 166.36686035 -15.78581055 166.36686035 -15.81835938 164.37792969 C-15.81511456 159.625436 -15.36354748 155.03599723 -14.72265625 150.33203125 C-14.6114444 149.49073166 -14.50023254 148.64943207 -14.38565063 147.78263855 C-14.01810395 145.0424644 -13.63809305 142.304295 -13.25390625 139.56640625 C-13.12207947 138.62177521 -12.99025269 137.67714417 -12.85443115 136.70388794 C-3.97161133 73.75181642 -3.97161133 73.75181642 7.24609375 51.31640625 C5.59609375 50.65640625 3.94609375 49.99640625 2.24609375 49.31640625 C2.24609375 47.00640625 2.24609375 44.69640625 2.24609375 42.31640625 C-8.88904712 44.22672387 -19.57902929 47.37357196 -29.75390625 52.31640625 C-28.48369221 46.52987562 -25.37578372 42.85594532 -20.75390625 39.31640625 C-18.52734375 38.6171875 -18.52734375 38.6171875 -16.75390625 38.31640625 C-16.75390625 37.65640625 -16.75390625 36.99640625 -16.75390625 36.31640625 C-15.48333443 35.83654658 -14.21243777 35.35754695 -12.94140625 34.87890625 C-11.87986328 34.47865234 -11.87986328 34.47865234 -10.796875 34.0703125 C-9.12718229 33.45415439 -7.44232921 32.8792139 -5.75390625 32.31640625 C-5.42390625 30.66640625 -5.09390625 29.01640625 -4.75390625 27.31640625 C-15.31178219 22.5774849 -24.2782428 22.14164995 -35.75390625 22.31640625 C-29.852411 16.31403074 -25.69277013 13.8743023 -17.19140625 13.62890625 C-8.39821321 13.59184327 -2.21448094 16.9185938 5.24609375 21.31640625 C5.57609375 21.31640625 5.90609375 21.31640625 6.24609375 21.31640625 C2.4826449 11.67256857 -6.39978772 6.85256766 -15.31640625 2.62890625 C-18.51184137 1.40883102 -21.36932722 0.72915979 -24.75390625 0.31640625 C-18.71306497 -5.72443503 -7.00679232 -3.21751903 0 0 Z " fill="#2C2829" transform="translate(200.75390625,112.68359375)"/>
<path d="M0 0 C0.66 0 1.32 0 2 0 C2 0.99 2 1.98 2 3 C2.58305908 3.27674561 3.16611816 3.55349121 3.7668457 3.83862305 C5.90753732 4.95191375 7.77652681 6.17066903 9.73046875 7.58203125 C10.44195068 8.09499756 11.15343262 8.60796387 11.88647461 9.13647461 C12.64581299 9.68956299 13.40515137 10.24265137 14.1875 10.8125 C14.98486572 11.3907251 15.78223145 11.9689502 16.60375977 12.56469727 C22.64325475 16.96426228 28.59148496 21.47404325 34.51000977 26.03442383 C39.99933935 30.25703406 45.54734856 34.39485287 51.125 38.5 C51.90673584 39.07548584 52.68847168 39.65097168 53.49389648 40.24389648 C56.99129655 42.81197553 60.50077307 45.35440502 64.0546875 47.84375 C65.02664063 48.5553125 65.99859375 49.266875 67 50 C67 50.33 67 50.66 67 51 C64.03 51 61.06 51 58 51 C58 70.14 58 89.28 58 109 C58.99 109 59.98 109 61 109 C60.75769653 107.48079956 60.75769653 107.48079956 60.51049805 105.9309082 C59.78559531 100.34905311 59.81401271 94.82610414 59.81469727 89.20385742 C59.8125168 87.20292053 59.79401688 85.20202326 59.77539062 83.20117188 C59.75354855 68.6325056 59.75354855 68.6325056 62 62 C62.99 61.01 62.99 61.01 64 60 C65.9375 60.046875 65.9375 60.046875 68 61 C79.16169127 77.18445234 81.00594369 98.6444657 81.1875 117.6875 C81.20055176 118.47116943 81.21360352 119.25483887 81.22705078 120.06225586 C81.23679085 126.68619732 80.09237255 132.72288236 78 139 C80.20452542 140.29855607 82.41323296 141.58888195 84.625 142.875 C85.24246094 143.23980469 85.85992187 143.60460937 86.49609375 143.98046875 C90.22662679 146.14025104 93.78557295 147.93428282 98 149 C100.81571431 148.24267038 100.81571431 148.24267038 103 147 C103 147.66 103 148.32 103 149 C99.51064529 151.32623648 98.09517402 151.25072494 94 151 C92.66457061 150.67516582 91.33038449 150.3449145 90 150 C89.67 150.33 89.34 150.66 89 151 C87.00049364 151.04443347 84.99961564 151.03920815 83 151 C80.47882234 151 77.95712712 151.03659203 75.4375 151.125 C72 151 72 151 69 149 C69 148.34 69 147.68 69 147 C69.59167969 147.08378906 70.18335938 147.16757812 70.79296875 147.25390625 C75.1381175 147.81388464 78.70975125 148.13565408 83 147 C83.99 147 84.98 147 86 147 C83.7941576 145.86988348 81.58554973 144.74584212 79.375 143.625 C78.44880859 143.14933594 78.44880859 143.14933594 77.50390625 142.6640625 C76.89160156 142.3546875 76.27929688 142.0453125 75.6484375 141.7265625 C75.09333496 141.44377441 74.53823242 141.16098633 73.96630859 140.86962891 C69.31074569 138.81063771 65.09766578 137.75024201 60.015625 137.5078125 C58.36626953 137.40919922 58.36626953 137.40919922 56.68359375 137.30859375 C54.3793512 137.18538624 52.07462622 137.07091434 49.76953125 136.96484375 C48.67511719 136.89652344 47.58070313 136.82820312 46.453125 136.7578125 C44.95507324 136.68264404 44.95507324 136.68264404 43.42675781 136.60595703 C42.62592773 136.40599121 41.82509766 136.20602539 41 136 C40.01 134.02 40.01 134.02 39 132 C30.75 132 22.5 132 14 132 C14 127.71 14 123.42 14 119 C23.24 119 32.48 119 42 119 C41.34 118.01 40.68 117.02 40 116 C39.01 116.495 39.01 116.495 38 117 C37.01 116.01 37.01 116.01 36 115 C36.99 114.67 37.98 114.34 39 114 C39.40863281 113.32453125 39.81726563 112.6490625 40.23828125 111.953125 C42 110 42 110 45.35546875 109.609375 C46.62003906 109.65578125 47.88460937 109.7021875 49.1875 109.75 C50.45980469 109.78609375 51.73210937 109.8221875 53.04296875 109.859375 C54.01878906 109.90578125 54.99460937 109.9521875 56 110 C56 108.35 56 106.7 56 105 C52.04 105 48.08 105 44 105 C44 104.34 44 103.68 44 103 C47.96 103 51.92 103 56 103 C56 89.14 56 75.28 56 61 C52.7 61 49.4 61 46 61 C46 60.34 46 59.68 46 59 C49.3 59 52.6 59 56 59 C56 55.7 56 52.4 56 49 C54.06215735 49.14120714 52.12473045 49.28812873 50.1875 49.4375 C49.10855469 49.51871094 48.02960938 49.59992188 46.91796875 49.68359375 C43.94010095 49.90212461 43.94010095 49.90212461 41 51 C39.14772748 51.09357692 37.2921282 51.12993909 35.4375 51.125 C34.46683594 51.12757813 33.49617188 51.13015625 32.49609375 51.1328125 C30 51 30 51 28 50 C26.5461507 49.79792056 25.08651638 49.63595501 23.625 49.5 C21.33982846 49.286004 19.23643423 49.06741887 17.02734375 48.4375 C14.51320894 47.89495068 12.48136457 48.16235282 9.9375 48.5 C6.67702293 48.93146163 5.18007569 49.06002523 2 48 C2 45.03 2 42.06 2 39 C3.32 39.33 4.64 39.66 6 40 C6.33 40.66 6.66 41.32 7 42 C7.02689216 40.52093108 7.04634621 39.04172517 7.0625 37.5625 C7.07410156 36.73878906 7.08570313 35.91507813 7.09765625 35.06640625 C7.23267348 33.00836062 7.23267348 33.00836062 6 32 C5.87625 30.906875 5.7525 29.81375 5.625 28.6875 C5.01508516 25.08900247 4.41455588 23.62451727 2 21 C3.65 21 5.3 21 7 21 C6.67 19.68 6.34 18.36 6 17 C6.99 17.33 7.98 17.66 9 18 C9.33 15.36 9.66 12.72 10 10 C9.1028125 9.566875 9.1028125 9.566875 8.1875 9.125 C6 8 6 8 3 6 C3 9.63 3 13.26 3 17 C1.68 16.67 0.36 16.34 -1 16 C-1 12.7 -1 9.4 -1 6 C-1.66 6 -2.32 6 -3 6 C-2.67 5.01 -2.34 4.02 -2 3 C-1.34 3 -0.68 3 0 3 C0 2.01 0 1.02 0 0 Z " fill="#181818" transform="translate(269,142)"/>
<path d="M0 0 C2.1346875 0.0309375 2.1346875 0.0309375 4.3125 0.0625 C4.6425 3.6925 4.9725 7.3225 5.3125 11.0625 C7.45210177 6.15354463 7.45210177 6.15354463 8.3125 1.0625 C12.6025 1.3925 16.8925 1.7225 21.3125 2.0625 C21.3125 3.0525 21.3125 4.0425 21.3125 5.0625 C19.3325 5.0625 17.3525 5.0625 15.3125 5.0625 C15.3125 7.3725 15.3125 9.6825 15.3125 12.0625 C28.8425 12.0625 42.3725 12.0625 56.3125 12.0625 C56.3125 9.7525 56.3125 7.4425 56.3125 5.0625 C46.0825 5.0625 35.8525 5.0625 25.3125 5.0625 C25.3125 3.4125 25.3125 1.7625 25.3125 0.0625 C26.93740954 0.03551811 28.56244633 0.01611243 30.1875 0 C31.54488281 -0.01740234 31.54488281 -0.01740234 32.9296875 -0.03515625 C35.3125 0.0625 35.3125 0.0625 37.3125 1.0625 C39.12291793 1.15882897 40.93702753 1.19231533 42.75 1.1875 C43.71808594 1.19007813 44.68617188 1.19265625 45.68359375 1.1953125 C48.42267829 1.17463973 48.42267829 1.17463973 51.3125 0.0625 C53.33156808 -0.03166778 55.35374313 -0.06741192 57.375 -0.0625 C58.43847656 -0.06507813 59.50195312 -0.06765625 60.59765625 -0.0703125 C63.3125 0.0625 63.3125 0.0625 65.3125 1.0625 C67.12291793 1.15882897 68.93702753 1.19231533 70.75 1.1875 C71.71808594 1.19007813 72.68617188 1.19265625 73.68359375 1.1953125 C76.42267829 1.17463973 76.42267829 1.17463973 79.3125 0.0625 C81.37395107 -0.006491 83.43751401 -0.02217727 85.5 0 C87.13001953 0.01353516 87.13001953 0.01353516 88.79296875 0.02734375 C89.62441406 0.03894531 90.45585937 0.05054688 91.3125 0.0625 C91.3125 3.3625 91.3125 6.6625 91.3125 10.0625 C88.0125 10.0625 84.7125 10.0625 81.3125 10.0625 C81.3125 10.7225 81.3125 11.3825 81.3125 12.0625 C84.6125 12.0625 87.9125 12.0625 91.3125 12.0625 C91.3125 25.9225 91.3125 39.7825 91.3125 54.0625 C87.3525 54.0625 83.3925 54.0625 79.3125 54.0625 C79.3125 54.7225 79.3125 55.3825 79.3125 56.0625 C83.2725 56.0625 87.2325 56.0625 91.3125 56.0625 C91.3125 57.3825 91.3125 58.7025 91.3125 60.0625 C86.3625 60.0625 81.4125 60.0625 76.3125 60.0625 C76.3125 45.5425 76.3125 31.0225 76.3125 16.0625 C66.7425 16.0625 57.1725 16.0625 47.3125 16.0625 C47.3125 30.5825 47.3125 45.1025 47.3125 60.0625 C25.2025 60.0625 3.0925 60.0625 -19.6875 60.0625 C-19.6875 51.4825 -19.6875 42.9025 -19.6875 34.0625 C-18.3675 34.0625 -17.0475 34.0625 -15.6875 34.0625 C-15.6875 39.6725 -15.6875 45.2825 -15.6875 51.0625 C-1.4975 51.0625 12.6925 51.0625 27.3125 51.0625 C27.3125 39.5125 27.3125 27.9625 27.3125 16.0625 C12.1325 16.0625 -3.0475 16.0625 -18.6875 16.0625 C-18.6875 13.4225 -18.6875 10.7825 -18.6875 8.0625 C-13.0775 8.0625 -7.4675 8.0625 -1.6875 8.0625 C-1.6875 7.0725 -1.6875 6.0825 -1.6875 5.0625 C-7.2975 5.0625 -12.9075 5.0625 -18.6875 5.0625 C-18.6875 4.0725 -18.6875 3.0825 -18.6875 2.0625 C-17.92824219 2.00191406 -17.16898438 1.94132813 -16.38671875 1.87890625 C-15.39285156 1.79511719 -14.39898437 1.71132812 -13.375 1.625 C-12.38886719 1.54378906 -11.40273437 1.46257812 -10.38671875 1.37890625 C-6.73678318 0.95105563 -3.72614266 -0.05400207 0 0 Z " fill="#F0F0F0" transform="translate(233.6875,190.9375)"/>
<path d="M0 0 C8.77578475 -0.92017937 8.77578475 -0.92017937 11.77734375 1.3359375 C13.125 3 13.125 3 15 6 C13.54742261 9.66716259 11.76538946 11.08446425 8.4375 13.125 C5.12890878 15.01471763 5.12890878 15.01471763 3 18 C4.32 17.34 5.64 16.68 7 16 C7 18.31 7 20.62 7 23 C4.69 22.67 2.38 22.34 0 22 C0.33 23.65 0.66 25.3 1 27 C-0.2065625 27.680625 -0.2065625 27.680625 -1.4375 28.375 C-4.08856572 29.74725665 -4.08856572 29.74725665 -5 32 C-3.02 31.01 -1.04 30.02 1 29 C0.49111458 33.45274745 -1.21232833 35.58285408 -4 39 C-4.33218192 42.00259517 -4.33218192 42.00259517 -2.5 43.6875 C-2.005 44.120625 -1.51 44.55375 -1 45 C-2.98 45.495 -2.98 45.495 -5 46 C-4.67 46.99 -4.34 47.98 -4 49 C-4.33 50.32 -4.66 51.64 -5 53 C12.49 53 29.98 53 48 53 C48 53.99 48 54.98 48 56 C30.51 56 13.02 56 -5 56 C-5 56.66 -5 57.32 -5 58 C-3.02 58 -1.04 58 1 58 C1 66.58 1 75.16 1 84 C-0.65 84 -2.3 84 -4 84 C-4 85.98 -4 87.96 -4 90 C-2.02 90 -0.04 90 2 90 C3.14982602 94.09003859 3.11094256 98.03177051 3.0625 102.25 C3.05798828 102.99507813 3.05347656 103.74015625 3.04882812 104.5078125 C3.03709246 106.3385764 3.0191585 108.16929873 3 110 C0.36 110 -2.28 110 -5 110 C-5 111.65 -5 113.3 -5 115 C-6.99954746 115.04254356 -9.00041636 115.04080783 -11 115 C-16.12178545 109.87821455 -13.31844293 90.29018282 -13.32128906 83.28076172 C-13.20367664 61.23925274 -10.98117811 38.25722074 -5 17 C-4.78134277 16.21882813 -4.56268555 15.43765625 -4.33740234 14.6328125 C-2.95196478 9.73599067 -1.50178072 4.86232283 0 0 Z " fill="#F6F6F6" transform="translate(211,167)"/>
<path d="M0 0 C0 6.6 0 13.2 0 20 C-20.46 20 -40.92 20 -62 20 C-62 17.03 -62 14.06 -62 11 C-43.7297345 -4.16776759 -22.35640386 -1.01900736 0 0 Z " fill="#FBFBFB" transform="translate(281,257)"/>
<path d="M0 0 C8.25 0 16.5 0 25 0 C25 13.86 25 27.72 25 42 C16.75 42 8.5 42 0 42 C0 28.14 0 14.28 0 0 Z " fill="#F1F1F1" transform="translate(283,209)"/>
<path d="M0 0 C9.57 0 19.14 0 29 0 C29 14.52 29 29.04 29 44 C33.95 44 38.9 44 44 44 C44 44.33 44 44.66 44 45 C45.65 45.33 47.3 45.66 49 46 C49 46.33 49 46.66 49 47 C42.07 47 35.14 47 28 47 C27.67 48.32 27.34 49.64 27 51 C27.66 50.67 28.32 50.34 29 50 C29.33 50.99 29.66 51.98 30 53 C30.66 53.66 31.32 54.32 32 55 C17.15 54.505 17.15 54.505 2 54 C2 55.98 2 57.96 2 60 C9.59 60 17.18 60 25 60 C25 60.33 25 60.66 25 61 C17.41 61 9.82 61 2 61 C2 62.98 2 64.96 2 67 C10.25 67 18.5 67 27 67 C27 65.35 27 63.7 27 62 C27.33 62 27.66 62 28 62 C28.495 65.96 28.495 65.96 29 70 C34.445 70.495 34.445 70.495 40 71 C40 71.33 40 71.66 40 72 C6.34 72 -27.32 72 -62 72 C-62 71.67 -62 71.34 -62 71 C-41.54 71 -21.08 71 0 71 C0 64.07 0 57.14 0 50 C-13.86 50 -27.72 50 -42 50 C-42 49.67 -42 49.34 -42 49 C-27.81 49 -13.62 49 1 49 C0.67 48.34 0.34 47.68 0 47 C-33.66 46.505 -33.66 46.505 -68 46 C-68 45.67 -68 45.34 -68 45 C-45.56 44.67 -23.12 44.34 0 44 C0 29.48 0 14.96 0 0 Z M2 2 C2 15.86 2 29.72 2 44 C10.25 44 18.5 44 27 44 C27 30.14 27 16.28 27 2 C18.75 2 10.5 2 2 2 Z " fill="#181818" transform="translate(281,207)"/>
<path d="M0 0 C6.93 0 13.86 0 21 0 C21 0.66 21 1.32 21 2 C21.66 2.33 22.32 2.66 23 3 C23.72337017 4.99439305 24.35436297 7.02269137 24.9375 9.0625 C26.43148188 14.14315749 28.06730188 19.07161979 30 24 C25.71 23.67 21.42 23.34 17 23 C17 22.34 17 21.68 17 21 C16.34 21 15.68 21 15 21 C15 21.66 15 22.32 15 23 C10.05 23 5.1 23 0 23 C-0.33 22.01 -0.66 21.02 -1 20 C-9.25 20 -17.5 20 -26 20 C-26 15.71 -26 11.42 -26 7 C-16.76 7 -7.52 7 2 7 C1.34 6.01 0.68 5.02 0 4 C-0.99 4.495 -0.99 4.495 -2 5 C-2.66 4.34 -3.32 3.68 -4 3 C-3.01 2.67 -2.02 2.34 -1 2 C-0.67 1.34 -0.34 0.68 0 0 Z " fill="#131313" transform="translate(309,254)"/>
<path d="M0 0 C0.99 0.33 1.98 0.66 3 1 C3 5.95 3 10.9 3 16 C4.98 16 6.96 16 9 16 C1.92735584 19.80834686 -4.0922027 20.25327465 -12 20 C-12 20.99 -12 21.98 -12 23 C-6.39 23 -0.78 23 5 23 C5 23.99 5 24.98 5 26 C-0.61 26 -6.22 26 -12 26 C-12 28.64 -12 31.28 -12 34 C3.18 34 18.36 34 34 34 C33.34 34.66 32.68 35.32 32 36 C32 38.97 32 41.94 32 45 C14.51 45 -2.98 45 -21 45 C-21 43.35 -21 41.7 -21 40 C-20.01 39.34 -19.02 38.68 -18 38 C-18.99 37.34 -19.98 36.68 -21 36 C-20.56360594 33.0543401 -19.85154873 31.81556054 -17.9375 29.4375 C-15.68887794 27.12754332 -15.68887794 27.12754332 -16 24 C-17.65 24.66 -19.3 25.32 -21 26 C-20.25 24.0625 -20.25 24.0625 -19 22 C-16.875 21.25 -16.875 21.25 -15 21 C-15.33 19.35 -15.66 17.7 -16 16 C-13.69 16.33 -11.38 16.66 -9 17 C-9.33 15.02 -9.66 13.04 -10 11 C-10.99 11.33 -11.98 11.66 -13 12 C-11.74641445 8.23924335 -10.29326113 7.52350869 -7.0625 5.3125 C-6.16660156 4.68988281 -5.27070313 4.06726563 -4.34765625 3.42578125 C-2 2 -2 2 0 2 C0 1.34 0 0.68 0 0 Z " fill="#737373" transform="translate(227,173)"/>
<path d="M0 0 C9.00628843 7.80544998 11.92082879 25.48421014 12.82568359 36.82202148 C13.13021657 42.37399034 13.18598205 47.92288316 13.18530273 53.48242188 C13.18752716 55.52494039 13.20586929 57.56694879 13.22460938 59.609375 C13.22750977 61.55070312 13.22750977 61.55070312 13.23046875 63.53125 C13.23457764 64.70236328 13.23868652 65.87347656 13.24291992 67.08007812 C13 70 13 70 11 73 C9.5137207 68.16900896 8.55451294 63.56151429 7.9296875 58.52734375 C7.80075607 57.4981356 7.80075607 57.4981356 7.66921997 56.44813538 C7.49019504 55.00896534 7.31386613 53.56945755 7.14013672 52.12963867 C6.87518292 49.93901238 6.60035698 47.74978844 6.32421875 45.56054688 C4.88333863 33.89479695 4.88333863 33.89479695 5 28 C4.34 28 3.68 28 3 28 C3.15146484 29.0737085 3.30292969 30.14741699 3.45898438 31.25366211 C4.02428324 35.27282901 4.58142684 39.29309277 5.13623047 43.3137207 C5.37655181 45.04709889 5.61902489 46.78018028 5.86376953 48.51293945 C6.21705958 51.0169728 6.56235818 53.52200446 6.90625 56.02734375 C7.0156189 56.79022202 7.12498779 57.55310028 7.2376709 58.33909607 C7.9494961 63.60176875 8.09216561 68.68895666 8 74 C-2.86550255 61.1130086 -3.23733162 38.304536 -3.3125 22.375 C-3.31805908 21.39217041 -3.32361816 20.40934082 -3.3293457 19.39672852 C-3.16800998 3.16800998 -3.16800998 3.16800998 0 0 Z " fill="#F4F4F4" transform="translate(334,204)"/>
<path d="M0 0 C18.08489 -1.03342229 18.08489 -1.03342229 22.5625 2.875 C26.84737875 8.36843429 26.64294168 13.16874464 26 20 C23.82957968 24.58199846 21.55715353 26.86842819 17 29 C14.05038772 29.35153062 11.1524573 29.28442652 8.1875 29.1875 C7.39923828 29.17396484 6.61097656 29.16042969 5.79882812 29.14648438 C3.86558831 29.11133456 1.93270318 29.05753361 0 29 C0.99 28.34 1.98 27.68 3 27 C3.46646462 24.4187315 3.46646462 24.4187315 3.3984375 21.40625 C3.40230469 20.29378906 3.40617188 19.18132812 3.41015625 18.03515625 C3.39855469 16.86855469 3.38695312 15.70195312 3.375 14.5 C3.39240234 12.75009766 3.39240234 12.75009766 3.41015625 10.96484375 C3.40628906 9.85238281 3.40242187 8.73992187 3.3984375 7.59375 C3.39505371 6.56958984 3.39166992 5.54542969 3.38818359 4.49023438 C3.26008301 3.66845703 3.13198242 2.84667969 3 2 C2.01 1.34 1.02 0.68 0 0 Z " fill="#FBFBFB" transform="translate(248,355)"/>
<path d="M0 0 C2.89684158 -0.10829314 5.78961019 -0.18743954 8.6875 -0.25 C9.50412109 -0.28351563 10.32074219 -0.31703125 11.16210938 -0.3515625 C15.2903855 -0.41841717 17.44294905 -0.33994392 21.046875 1.859375 C23 4 23 4 23.5625 6.5 C22.8459104 9.68484266 21.45824857 10.92585277 19 13 C19.99 13.70125 20.98 14.4025 22 15.125 C24.50203057 17.21793079 24.94218792 17.71672078 25.625 21.0625 C24.87539823 24.58562834 23.78875524 25.78540025 21 28 C18.65147472 29.17426264 17.26225935 29.11508173 14.6484375 29.09765625 C13.79765625 29.09443359 12.946875 29.09121094 12.0703125 29.08789062 C11.18085938 29.07951172 10.29140625 29.07113281 9.375 29.0625 C8.4778125 29.05798828 7.580625 29.05347656 6.65625 29.04882812 C4.43743352 29.03702591 2.21874982 29.02056155 0 29 C0.99 28.67 1.98 28.34 3 28 C3 19.09 3 10.18 3 1 C2.01 0.67 1.02 0.34 0 0 Z " fill="#000000" transform="translate(193,316)"/>
<path d="M0 0 C1.9375 0.046875 1.9375 0.046875 4 1 C15.16169127 17.18445234 17.00594369 38.6444657 17.1875 57.6875 C17.20055176 58.47116943 17.21360352 59.25483887 17.22705078 60.06225586 C17.23679085 66.68619732 16.09237255 72.72288236 14 79 C16.20452542 80.29855607 18.41323296 81.58888195 20.625 82.875 C21.55119141 83.42220703 21.55119141 83.42220703 22.49609375 83.98046875 C26.22662679 86.14025104 29.78557295 87.93428282 34 89 C36.81571431 88.24267038 36.81571431 88.24267038 39 87 C39 87.66 39 88.32 39 89 C35.51064529 91.32623648 34.09517402 91.25072494 30 91 C28.66457061 90.67516582 27.33038449 90.3449145 26 90 C25.67 90.33 25.34 90.66 25 91 C23.00049364 91.04443347 20.99961564 91.03920815 19 91 C16.47882234 91 13.95712712 91.03659203 11.4375 91.125 C8 91 8 91 5 89 C5 88.34 5 87.68 5 87 C5.88751953 87.12568359 5.88751953 87.12568359 6.79296875 87.25390625 C11.1381175 87.81388464 14.70975125 88.13565408 19 87 C19.99 87 20.98 87 22 87 C15.07 83.535 15.07 83.535 8 80 C8.99 79.01 9.98 78.02 11 77 C11.25069913 74.37429296 11.25069913 74.37429296 11 72 C11.66 72 12.32 72 13 72 C13.0250466 67.92896481 13.04302089 63.85796054 13.05493164 59.78686523 C13.05990624 58.40697446 13.06668832 57.02708879 13.07543945 55.6472168 C13.15037656 43.51181352 12.84313165 32.43251029 9.1875 20.8125 C8.93935547 19.97525391 8.69121094 19.13800781 8.43554688 18.27539062 C6.7769273 12.86060968 4.65864468 8.00009749 2 3 C-2.18834834 9.28252251 -1.15224281 17.44892693 -1.125 24.75 C-1.12886719 25.7709375 -1.13273437 26.791875 -1.13671875 27.84375 C-1.129018 33.91194183 -0.79865277 39.80872067 -0.01904297 45.82910156 C-0.01275879 46.54549805 -0.00647461 47.26189453 0 48 C-0.66 48.66 -1.32 49.32 -2 50 C-4.125 49.625 -4.125 49.625 -6 49 C-5.01 49 -4.02 49 -3 49 C-3.16153564 47.98719971 -3.32307129 46.97439941 -3.48950195 45.9309082 C-4.21440469 40.34905311 -4.18598729 34.82610414 -4.18530273 29.20385742 C-4.1874832 27.20292053 -4.20598312 25.20202326 -4.22460938 23.20117188 C-4.24645145 8.6325056 -4.24645145 8.6325056 -2 2 C-1.34 1.34 -0.68 0.68 0 0 Z " fill="#151515" transform="translate(333,202)"/>
<path d="M0 0 C6.0038451 3.00192255 6.0038451 3.00192255 8 5 C8.45410156 7.91088867 8.45410156 7.91088867 8.390625 11.41796875 C8.37128906 13.29838867 8.37128906 13.29838867 8.3515625 15.21679688 C8.31804687 16.52712891 8.28453125 17.83746094 8.25 19.1875 C8.22993307 20.5227601 8.21168262 21.85804883 8.1953125 23.19335938 C8.14809803 26.46296146 8.08225184 29.73112192 8 33 C4.54723803 34.43450693 1.6068512 35.33942214 -2.125 35.6875 C-2.97320312 35.77386719 -3.82140625 35.86023438 -4.6953125 35.94921875 C-7 36 -7 36 -10 35 C-10 32.03 -10 29.06 -10 26 C-8.68 26.33 -7.36 26.66 -6 27 C-5.67 27.66 -5.34 28.32 -5 29 C-4.9729957 27.54176788 -4.95360213 26.08339325 -4.9375 24.625 C-4.92589844 23.81289062 -4.91429687 23.00078125 -4.90234375 22.1640625 C-4.85533666 19.95062858 -4.85533666 19.95062858 -6 18 C-5.71758117 15.6599583 -5.38749213 13.32495277 -5 11 C-4.01 10.67 -3.02 10.34 -2 10 C-2 10.66 -2 11.32 -2 12 C-1.34 12 -0.68 12 0 12 C0 8.04 0 4.08 0 0 Z " fill="#F2F2F2" transform="translate(281,155)"/>
<path d="M0 0 C2.56364483 -0.10845031 5.12266279 -0.18749744 7.6875 -0.25 C8.40873047 -0.28351563 9.12996094 -0.31703125 9.87304688 -0.3515625 C13.74623464 -0.42230566 15.59374756 -0.2485309 18.98828125 1.828125 C21 4 21 4 21.5 7 C20.96250906 10.22494561 20.2969155 11.7030845 18 14 C17.34 14 16.68 14 16 14 C16.61875 15.03125 17.2375 16.0625 17.875 17.125 C19.71484644 20.31881793 20.85818239 23.49298878 22 27 C22.66 27.66 23.32 28.32 24 29 C22.02 29 20.04 29 18 29 C16.68 25.04 15.36 21.08 14 17 C12.02 16.67 10.04 16.34 8 16 C8 19.96 8 23.92 8 28 C8.99 28.33 9.98 28.66 11 29 C7.37 29 3.74 29 0 29 C0.99 28.67 1.98 28.34 3 28 C3 19.09 3 10.18 3 1 C2.01 0.67 1.02 0.34 0 0 Z " fill="#373737" transform="translate(312,355)"/>
<path d="M0 0 C6.08654524 0.77289463 10.64426856 4.20676856 14.9375 8.5 C14.9375 9.49 14.9375 10.48 14.9375 11.5 C16.9175 11.5 18.8975 11.5 20.9375 11.5 C20.9375 12.16 20.9375 12.82 20.9375 13.5 C19.2875 13.83 17.6375 14.16 15.9375 14.5 C15.9375 15.16 15.9375 15.82 15.9375 16.5 C6.6975 16.5 -2.5425 16.5 -12.0625 16.5 C-12.0625 15.84 -12.0625 15.18 -12.0625 14.5 C-15.0325 14.005 -15.0325 14.005 -18.0625 13.5 C-18.0625 12.84 -18.0625 12.18 -18.0625 11.5 C-17.216875 11.5 -16.37125 11.5 -15.5 11.5 C-10.42247942 10.0229031 -8.26123973 6.53140135 -5.0625 2.5 C-3.0625 0.5 -3.0625 0.5 0 0 Z " fill="#B7B7B7" transform="translate(341.0625,166.5)"/>
<path d="M0 0 C8.77578475 -0.92017937 8.77578475 -0.92017937 11.77734375 1.3359375 C13.125 3 13.125 3 15 6 C13.54742261 9.66716259 11.76538946 11.08446425 8.4375 13.125 C5.12890878 15.01471763 5.12890878 15.01471763 3 18 C4.32 17.34 5.64 16.68 7 16 C7 18.31 7 20.62 7 23 C4.69 22.67 2.38 22.34 0 22 C0.33 23.65 0.66 25.3 1 27 C0.175 27.433125 -0.65 27.86625 -1.5 28.3125 C-2.325 28.869375 -3.15 29.42625 -4 30 C-4 30.99 -4 31.98 -4 33 C-4.66 33 -5.32 33 -6 33 C-7.2948859 27.7208498 -6.5817467 23.87470341 -5.25 18.75 C-4.9730127 17.63153687 -4.9730127 17.63153687 -4.69042969 16.49047852 C-3.29772998 10.94313187 -1.76476078 5.44134572 0 0 Z " fill="#F3F3F3" transform="translate(211,167)"/>
<path d="M0 0 C0.99 0 1.98 0 3 0 C4.4783226 2.95664519 4.06032783 5.74229737 4 9 C4.66 9.33 5.32 9.66 6 10 C5.67 10.33 5.34 10.66 5 11 C4.67 13.97 4.34 16.94 4 20 C24.46 20 44.92 20 66 20 C66 20.33 66 20.66 66 21 C83.82 21.33 101.64 21.66 120 22 C120 22.33 120 22.66 120 23 C77.43 23 34.86 23 -9 23 C-9 22.01 -9 21.02 -9 20 C-6.36 20 -3.72 20 -1 20 C-1.020625 18.741875 -1.04125 17.48375 -1.0625 16.1875 C-1.07115072 10.75485053 -0.56512387 5.39895124 0 0 Z " fill="#505050" transform="translate(215,257)"/>
<path d="M0 0 C23.76 0 47.52 0 72 0 C72 0.66 72 1.32 72 2 C57.81 2 43.62 2 29 2 C29 2.66 29 3.32 29 4 C26.23796468 5.53723734 23.46414848 7.05184161 20.6875 8.5625 C19.90181641 9.00013672 19.11613281 9.43777344 18.30664062 9.88867188 C17.54931641 10.29794922 16.79199219 10.70722656 16.01171875 11.12890625 C14.96697388 11.70233765 14.96697388 11.70233765 13.90112305 12.28735352 C12 13 12 13 9 12 C8.67 9.03 8.34 6.06 8 3 C7.01 3 6.02 3 5 3 C5 6.63 5 10.26 5 14 C4.67 14 4.34 14 4 14 C4 10.04 4 6.08 4 2 C2.68 1.34 1.36 0.68 0 0 Z " fill="#7F7F7F" transform="translate(210,254)"/>
<path d="M0 0 C6.27 0 12.54 0 19 0 C19 4.95 19 9.9 19 15 C12.73 15 6.46 15 0 15 C0 10.05 0 5.1 0 0 Z " fill="#F1F1F1" transform="translate(220,225)"/>
<path d="M0 0 C0 2.97 0 5.94 0 9 C-0.66 9 -1.32 9 -2 9 C-2.309375 8.030625 -2.61875 7.06125 -2.9375 6.0625 C-3.69523342 3.15934208 -3.69523342 3.15934208 -5 2 C-6.99958364 1.95919217 -9.00045254 1.95745644 -11 2 C-11.33 3.65 -11.66 5.3 -12 7 C-10.84371094 7.93972656 -10.84371094 7.93972656 -9.6640625 8.8984375 C-8.66117187 9.71570313 -7.65828125 10.53296875 -6.625 11.375 C-5.62726563 12.18710937 -4.62953125 12.99921875 -3.6015625 13.8359375 C0.95113133 17.62301315 0.95113133 17.62301315 1.4375 21.375 C1 25 1 25 -1.375 27.375 C-7.19586971 30.97839553 -12.38702056 30.29033745 -19 29 C-19 25.37 -19 21.74 -19 18 C-18.34 18 -17.68 18 -17 18 C-16.01 20.97 -15.02 23.94 -14 27 C-11.66705225 27.04241723 -9.33297433 27.04092937 -7 27 C-5.7700286 25.96088721 -5.7700286 25.96088721 -5.59765625 23.734375 C-6.18857929 19.71839316 -8.26642248 18.65759517 -11.4375 16.25 C-12.44683594 15.47140625 -13.45617187 14.6928125 -14.49609375 13.890625 C-15.32238281 13.26671875 -16.14867187 12.6428125 -17 12 C-18 11 -18 11 -18.25 7.125 C-18.2020808 3.29830976 -18.2020808 3.29830976 -16.6875 1.0625 C-11.4713867 -2.22171949 -5.75486848 -1.09616542 0 0 Z " fill="#080808" transform="translate(277,316)"/>
<path d="M0 0 C5.94 0 11.88 0 18 0 C18 4.95 18 9.9 18 15 C12.06 15 6.12 15 0 15 C0 10.05 0 5.1 0 0 Z " fill="#F7F7F7" transform="translate(241,225)"/>
<path d="M0 0 C13.53 0 27.06 0 41 0 C41 1.98 41 3.96 41 6 C27.47 6 13.94 6 0 6 C0 4.02 0 2.04 0 0 Z " fill="#000000" transform="translate(249,197)"/>
<path d="M0 0 C1.83886719 0.15649414 1.83886719 0.15649414 4 1 C5.37207031 3.37670898 5.37207031 3.37670898 6.578125 6.49609375 C7.23554688 8.16961914 7.23554688 8.16961914 7.90625 9.87695312 C8.3496875 11.05193359 8.793125 12.22691406 9.25 13.4375 C9.70890625 14.60861328 10.1678125 15.77972656 10.640625 16.98632812 C14 25.64971633 14 25.64971633 14 28 C14.66 28.33 15.32 28.66 16 29 C11.71 29 7.42 29 3 29 C3.99 28.67 4.98 28.34 6 28 C5.01 25.03 4.02 22.06 3 19 C0.03 18.67 -2.94 18.34 -6 18 C-6.33 20.97 -6.66 23.94 -7 27 C-6.01 27.66 -5.02 28.32 -4 29 C-6.97 29 -9.94 29 -13 29 C-12.56042969 28.47921875 -12.12085938 27.9584375 -11.66796875 27.421875 C-9.65320726 24.49646018 -8.54408204 21.57860011 -7.3125 18.25 C-6.87550781 17.07953125 -6.43851563 15.9090625 -5.98828125 14.703125 C-5.66214844 13.81109375 -5.33601562 12.9190625 -5 12 C-4.67 12.99 -4.34 13.98 -4 15 C-4.33 15.66 -4.66 16.32 -5 17 C-2.69 17 -0.38 17 2 17 C1.69964844 16.33613281 1.39929688 15.67226563 1.08984375 14.98828125 C0.70957031 14.10527344 0.32929688 13.22226562 -0.0625 12.3125 C-0.44535156 11.44238281 -0.82820312 10.57226562 -1.22265625 9.67578125 C-2.30221064 5.95972721 -1.70674857 3.41349713 0 0 Z " fill="#0D0D0D" transform="translate(236,316)"/>
<path d="M0 0 C18.08489 -1.03342229 18.08489 -1.03342229 22.5625 2.875 C26.84737875 8.36843429 26.64294168 13.16874464 26 20 C23.82957968 24.58199846 21.55715353 26.86842819 17 29 C14.05038772 29.35153062 11.1524573 29.28442652 8.1875 29.1875 C7.39923828 29.17396484 6.61097656 29.16042969 5.79882812 29.14648438 C3.86558831 29.11133456 1.93270318 29.05753361 0 29 C0.99 28.34 1.98 27.68 3 27 C3.46646462 24.4187315 3.46646462 24.4187315 3.3984375 21.40625 C3.40230469 20.29378906 3.40617188 19.18132812 3.41015625 18.03515625 C3.39855469 16.86855469 3.38695312 15.70195312 3.375 14.5 C3.39240234 12.75009766 3.39240234 12.75009766 3.41015625 10.96484375 C3.40628906 9.85238281 3.40242187 8.73992187 3.3984375 7.59375 C3.39505371 6.56958984 3.39166992 5.54542969 3.38818359 4.49023438 C3.26008301 3.66845703 3.13198242 2.84667969 3 2 C2.01 1.34 1.02 0.68 0 0 Z M8 1 C8 9.91 8 18.82 8 28 C14.89661861 28.24689052 14.89661861 28.24689052 20 25 C23.27853171 19.96141443 22.59278907 13.75648186 22 8 C20.98667821 5.25454688 20.08531872 4.14489926 18 2 C14.4202491 0.63106761 14.4202491 0.63106761 8 1 Z " fill="#1A1A1A" transform="translate(248,355)"/>
<path d="M0 0 C0.99 0.33 1.98 0.66 3 1 C3 5.95 3 10.9 3 16 C4.98 16 6.96 16 9 16 C3.20649001 19.1195823 -1.78345851 20.24936871 -8.375 20.125 C-9.62023437 20.10695312 -10.86546875 20.08890625 -12.1484375 20.0703125 C-13.08945313 20.04710937 -14.03046875 20.02390625 -15 20 C-15.33 18.68 -15.66 17.36 -16 16 C-13.69 16.33 -11.38 16.66 -9 17 C-9.33 15.02 -9.66 13.04 -10 11 C-10.99 11.33 -11.98 11.66 -13 12 C-11.74641445 8.23924335 -10.29326113 7.52350869 -7.0625 5.3125 C-6.16660156 4.68988281 -5.27070313 4.06726563 -4.34765625 3.42578125 C-2 2 -2 2 0 2 C0 1.34 0 0.68 0 0 Z " fill="#101010" transform="translate(227,173)"/>
<path d="M0 0 C1.32 0 2.64 0 4 0 C4.22139648 0.55872803 4.44279297 1.11745605 4.67089844 1.69311523 C5.69536481 4.27533551 6.7226677 6.85641866 7.75 9.4375 C8.27207031 10.75524414 8.27207031 10.75524414 8.8046875 12.09960938 C11.07486427 17.79607146 13.4757325 23.41136272 16 29 C12.04 29 8.08 29 4 29 C4.66 28.67 5.32 28.34 6 28 C5.34 24.7 4.68 21.4 4 18 C2.55625 18.12375 1.1125 18.2475 -0.375 18.375 C-1.59316406 18.47941406 -1.59316406 18.47941406 -2.8359375 18.5859375 C-5.20334191 18.82892588 -5.20334191 18.82892588 -7 21 C-6.67 19.35 -6.34 17.7 -6 16 C-3.03 16.33 -0.06 16.66 3 17 C2.58427734 16.07767578 2.58427734 16.07767578 2.16015625 15.13671875 C1.79792969 14.32847656 1.43570312 13.52023437 1.0625 12.6875 C0.70285156 11.88699219 0.34320313 11.08648437 -0.02734375 10.26171875 C-2.1299505 5.37252475 -2.1299505 5.37252475 -1.0625 2.3125 C-0.711875 1.549375 -0.36125 0.78625 0 0 Z " fill="#121212" transform="translate(296,316)"/>
<path d="M0 0 C3.0625 -0.625 3.0625 -0.625 7 0 C9.84828941 3.00175328 11.8626716 6.47194422 14 10 C15.13871386 11.71308714 16.28400302 13.42183192 17.4375 15.125 C18.29286927 16.41587059 19.14751605 17.70722214 20 19 C20.05380578 16.20807795 20.09357669 13.4171859 20.125 10.625 C20.14175781 9.8309375 20.15851563 9.036875 20.17578125 8.21875 C20.19335473 6.14507985 20.10335168 4.07116759 20 2 C19.34 1.34 18.68 0.68 18 0 C20.64 0 23.28 0 26 0 C25.01 0.33 24.02 0.66 23 1 C23 10.24 23 19.48 23 29 C19.4442788 27.8147596 19.10017949 27.02405144 17.1875 23.921875 C16.66929687 23.09042969 16.15109375 22.25898438 15.6171875 21.40234375 C15.08351562 20.52707031 14.54984375 19.65179688 14 18.75 C13.46632812 17.89019531 12.93265625 17.03039062 12.3828125 16.14453125 C9.88795697 12.11676697 7.42276876 8.0715975 5 4 C4.9132018 7.79152334 4.85967793 11.58279296 4.8125 15.375 C4.78736328 16.45523437 4.76222656 17.53546875 4.73632812 18.6484375 C4.72666016 19.6796875 4.71699219 20.7109375 4.70703125 21.7734375 C4.6913208 22.72653809 4.67561035 23.67963867 4.65942383 24.66162109 C4.77181396 25.43328613 4.8842041 26.20495117 5 27 C5.99 27.66 6.98 28.32 8 29 C5.36 29 2.72 29 0 29 C0.66 28.34 1.32 27.68 2 27 C2.37207354 24.28384136 2.37207354 24.28384136 2.4140625 21.1171875 C2.45273438 19.95058594 2.49140625 18.78398437 2.53125 17.58203125 C2.5621875 16.35871094 2.593125 15.13539063 2.625 13.875 C2.66367188 12.64394531 2.70234375 11.41289062 2.7421875 10.14453125 C2.8366999 7.09650624 2.92225494 4.04849138 3 1 C2.01 0.67 1.02 0.34 0 0 Z " fill="#101010" transform="translate(215,355)"/>
<path d="M0 0 C3.61855575 0.62388892 4.1709277 1.1709277 7 4 C4.03 4 1.06 4 -2 4 C-2 23.47 -2 42.94 -2 63 C-0.68 63 0.64 63 2 63 C2 61.35 2 59.7 2 58 C4.14915785 61.22373677 4.38286803 62.26703674 4 66 C3.01 66.99 3.01 66.99 2 68 C0.515 67.505 0.515 67.505 -1 67 C-0.34 67 0.32 67 1 67 C1 66.01 1 65.02 1 64 C-5.27 64 -11.54 64 -18 64 C-18 63.67 -18 63.34 -18 63 C-13.38 63 -8.76 63 -4 63 C-4 61.35 -4 59.7 -4 58 C-7.96 58 -11.92 58 -16 58 C-16 57.34 -16 56.68 -16 56 C-12.04 56 -8.08 56 -4 56 C-4 42.14 -4 28.28 -4 14 C-7.3 14 -10.6 14 -14 14 C-14 13.34 -14 12.68 -14 12 C-10.37 12 -6.74 12 -3 12 C-3 9.03 -3 6.06 -3 3 C-2.01 3 -1.02 3 0 3 C0 2.01 0 1.02 0 0 Z " fill="#191919" transform="translate(329,189)"/>
<path d="M0 0 C6.6 0 13.2 0 20 0 C20 2.31 20 4.62 20 7 C19.34 7 18.68 7 18 7 C18 5.35 18 3.7 18 2 C14.37 1.67 10.74 1.34 7 1 C7 5.29 7 9.58 7 14 C12.06008639 12.52360997 12.06008639 12.52360997 14 9 C14 12.63 14 16.26 14 20 C13.34 18.68 12.68 17.36 12 16 C10.35 15.67 8.7 15.34 7 15 C7 19.29 7 23.58 7 28 C8.44375 27.855625 9.8875 27.71125 11.375 27.5625 C12.18710937 27.48128906 12.99921875 27.40007812 13.8359375 27.31640625 C16.04272805 27.10909886 16.04272805 27.10909886 18 26 C18.65555119 23.47266765 18.65555119 23.47266765 19 21 C19.66 21 20.32 21 21 21 C21 23.64 21 26.28 21 29 C14.07 29 7.14 29 0 29 C0.66 28.34 1.32 27.68 2 27 C2.31133586 24.41255561 2.31133586 24.41255561 2.265625 21.40625 C2.26820313 20.29378906 2.27078125 19.18132812 2.2734375 18.03515625 C2.26570313 16.86855469 2.25796875 15.70195312 2.25 14.5 C2.26160156 12.75009766 2.26160156 12.75009766 2.2734375 10.96484375 C2.26957031 9.29615234 2.26957031 9.29615234 2.265625 7.59375 C2.26336914 6.56958984 2.26111328 5.54542969 2.25878906 4.49023438 C2.24633072 1.82617797 2.24633072 1.82617797 0 0 Z " fill="#181818" transform="translate(283,355)"/>
<path d="M0 0 C7 4 7 4 8 5 C8.08700342 6.63472882 8.10701063 8.27314055 8.09765625 9.91015625 C8.09443359 10.89951172 8.09121094 11.88886719 8.08789062 12.90820312 C8.07951172 13.94912109 8.07113281 14.99003906 8.0625 16.0625 C8.05798828 17.10728516 8.05347656 18.15207031 8.04882812 19.22851562 C8.03699913 21.8190666 8.02051689 24.40950559 8 27 C5.23723823 26.47731534 2.6739124 25.89130413 0 25 C0 16.75 0 8.5 0 0 Z " fill="#F1F1F1" transform="translate(292,163)"/>
<path d="M0 0 C1.9375 0.046875 1.9375 0.046875 4 1 C10.35081931 10.20868801 14.88117223 22.76505407 14 34 C12.20726598 31.31089897 11.47942831 29.64419116 10.6328125 26.61328125 C10.38660156 25.75669922 10.14039063 24.90011719 9.88671875 24.01757812 C9.38457557 22.23432606 8.88452588 20.45048298 8.38671875 18.66601562 C6.77276471 13.06735123 4.76159544 8.13465473 2 3 C-2.18834834 9.28252251 -1.15224281 17.44892693 -1.125 24.75 C-1.12886719 25.7709375 -1.13273437 26.791875 -1.13671875 27.84375 C-1.129018 33.91194183 -0.79865277 39.80872067 -0.01904297 45.82910156 C-0.01275879 46.54549805 -0.00647461 47.26189453 0 48 C-0.66 48.66 -1.32 49.32 -2 50 C-4.125 49.625 -4.125 49.625 -6 49 C-5.01 49 -4.02 49 -3 49 C-3.16153564 47.98719971 -3.32307129 46.97439941 -3.48950195 45.9309082 C-4.21440469 40.34905311 -4.18598729 34.82610414 -4.18530273 29.20385742 C-4.1874832 27.20292053 -4.20598312 25.20202326 -4.22460938 23.20117188 C-4.24645145 8.6325056 -4.24645145 8.6325056 -2 2 C-1.34 1.34 -0.68 0.68 0 0 Z " fill="#232323" transform="translate(333,202)"/>
<path d="M0 0 C6.6 0 13.2 0 20 0 C20 2.97 20 5.94 20 9 C18 8 18 8 16.875 4.9375 C16.58625 3.968125 16.2975 2.99875 16 2 C13.03 1.67 10.06 1.34 7 1 C7 5.29 7 9.58 7 14 C8.65 13.67 10.3 13.34 12 13 C12.66 11.68 13.32 10.36 14 9 C14 12.63 14 16.26 14 20 C13.01 18.68 12.02 17.36 11 16 C8.90584196 15.20376178 8.90584196 15.20376178 7 15 C7.0868748 16.95917659 7.19504512 18.91741871 7.3125 20.875 C7.39951172 22.51082031 7.39951172 22.51082031 7.48828125 24.1796875 C7.65714844 25.11039062 7.82601562 26.04109375 8 27 C8.99 27.66 9.98 28.32 11 29 C7.04 29 3.08 29 -1 29 C-0.01 28.34 0.98 27.68 2 27 C2.45002045 24.4178472 2.45002045 24.4178472 2.36328125 21.40625 C2.36231445 19.73755859 2.36231445 19.73755859 2.36132812 18.03515625 C2.34521484 16.86855469 2.32910156 15.70195312 2.3125 14.5 C2.31572266 13.33339844 2.31894531 12.16679687 2.32226562 10.96484375 C2.72534132 4.90738711 2.72534132 4.90738711 0 0 Z " fill="#0B0B0B" transform="translate(169,355)"/>
<path d="M0 0 C0.66 0 1.32 0 2 0 C2 3.3 2 6.6 2 10 C2.66 9.67 3.32 9.34 4 9 C4.65555119 6.47266765 4.65555119 6.47266765 5 4 C8.875 8.75 8.875 8.75 10 11 C8.68 11 7.36 11 6 11 C6.33 11.99 6.66 12.98 7 14 C9.31 14.33 11.62 14.66 14 15 C13.67 15.66 13.34 16.32 13 17 C12.77532169 18.53668865 12.59203195 20.07968054 12.4375 21.625 C12.293125 23.06875 12.14875 24.5125 12 26 C14.97 26.33 17.94 26.66 21 27 C21 22.38 21 17.76 21 13 C21.33 13 21.66 13 22 13 C22 17.29 22 21.58 22 26 C25.96 25.505 25.96 25.505 30 25 C29 27 29 27 26.625 28.125 C19.85988664 29.7579584 13.39402281 29.91373191 7 27 C7.33 26.34 7.66 25.68 8 25 C8.66 25 9.32 25 10 25 C10 22.36 10 19.72 10 17 C9.21625 16.87625 8.4325 16.7525 7.625 16.625 C5 16 5 16 3 14 C2.67 17.3 2.34 20.6 2 24 C1.34 24 0.68 24 0 24 C0 16.08 0 8.16 0 0 Z " fill="#121212" transform="translate(259,164)"/>
<path d="M0 0 C1.67542976 0.28604898 3.34385343 0.61781233 5 1 C5 5.33333333 5 9.66666667 5 14 C5.66 14.66 6.32 15.32 7 16 C7.30078125 18.09375 7.30078125 18.09375 7.3125 20.5 C7.33763672 21.69109375 7.33763672 21.69109375 7.36328125 22.90625 C7.24339844 23.5971875 7.12351563 24.288125 7 25 C4 27 4 27 1.3125 26.625 C0.1678125 26.315625 0.1678125 26.315625 -1 26 C-1.02886751 21.85418113 -1.04675327 17.70838784 -1.0625 13.5625 C-1.07087891 12.37849609 -1.07925781 11.19449219 -1.08789062 9.97460938 C-1.09111328 8.84990234 -1.09433594 7.72519531 -1.09765625 6.56640625 C-1.10289307 5.52427979 -1.10812988 4.48215332 -1.11352539 3.40844727 C-1 1 -1 1 0 0 Z " fill="#FBFBFB" transform="translate(204,317)"/>
<path d="M0 0 C1.65 0 3.3 0 5 0 C5.25394531 0.845625 5.50789063 1.69125 5.76953125 2.5625 C7.66033362 8.79435798 9.622251 14.93674005 12 21 C7.71 20.67 3.42 20.34 -1 20 C-1.14285714 6.14285714 -1.14285714 6.14285714 0 0 Z " fill="#F4F4F4" transform="translate(327,257)"/>
<path d="M0 0 C4.41548346 0.69940794 7.3493803 3.34574119 10.75 6.0625 C11.35199219 6.53494141 11.95398438 7.00738281 12.57421875 7.49414062 C14.05409943 8.65690401 15.52768096 9.8276766 17 11 C16.67 12.32 16.34 13.64 16 15 C15.01 15 14.02 15 13 15 C13 17.97 13 20.94 13 24 C12.67 24 12.34 24 12 24 C12 20.7 12 17.4 12 14 C10.5975 14.04125 9.195 14.0825 7.75 14.125 C4.22079273 14.22880021 2.06246747 13.78409802 -1 12 C-1.02687279 10.18757948 -1.04633715 8.37504767 -1.0625 6.5625 C-1.07410156 5.55316406 -1.08570313 4.54382813 -1.09765625 3.50390625 C-1 1 -1 1 0 0 Z " fill="#222222" transform="translate(313,177)"/>
<path d="M0 0 C2.17666626 -0.36076355 2.17666626 -0.36076355 4.90869141 -0.34057617 C6.44005234 -0.34023628 6.44005234 -0.34023628 8.00234985 -0.33988953 C9.10759003 -0.32440567 10.2128302 -0.30892181 11.3515625 -0.29296875 C12.4807309 -0.28872391 13.60989929 -0.28447906 14.77328491 -0.28010559 C18.39076273 -0.26327132 22.00768969 -0.22560975 25.625 -0.1875 C28.07290864 -0.17245934 30.52082598 -0.15876986 32.96875 -0.14648438 C38.9793556 -0.11335227 44.98963846 -0.06310579 51 0 C51 0.99 51 1.98 51 3 C33.51 3 16.02 3 -2 3 C-1.34 2.01 -0.68 1.02 0 0 Z " fill="#FFFFFF" transform="translate(208,220)"/>
<path d="M0 0 C0.66 0 1.32 0 2 0 C2 0.66 2 1.32 2 2 C2.99 2 3.98 2 5 2 C4.93941406 2.55945313 4.87882812 3.11890625 4.81640625 3.6953125 C4.04062176 11.11897335 3.50430295 18.55348409 3 26 C0.03 25.67 -2.94 25.34 -6 25 C-6 22.03 -6 19.06 -6 16 C-4.68 16.33 -3.36 16.66 -2 17 C-1.67 17.66 -1.34 18.32 -1 19 C-0.9729957 17.54176788 -0.95360213 16.08339325 -0.9375 14.625 C-0.92589844 13.81289062 -0.91429687 13.00078125 -0.90234375 12.1640625 C-0.85533666 9.95062858 -0.85533666 9.95062858 -2 8 C-1.29411765 1.29411765 -1.29411765 1.29411765 0 0 Z " fill="#272727" transform="translate(277,165)"/>
<path d="M0 0 C16.17 0 32.34 0 49 0 C49 0.99 49 1.98 49 3 C32.5 3 16 3 -1 3 C-0.67 2.01 -0.34 1.02 0 0 Z " fill="#FEFEFE" transform="translate(210,214)"/>
<path d="M0 0 C8 6 8 6 8.78125 9.8671875 C8.72877179 11.20538184 8.63428032 12.54252604 8.5 13.875 C8.46390625 14.56335938 8.4278125 15.25171875 8.390625 15.9609375 C8.29717317 17.64307039 8.15368268 19.32229742 8 21 C5.36 21 2.72 21 0 21 C0 14.07 0 7.14 0 0 Z " fill="#F6F6F6" transform="translate(302,170)"/>
<path d="M0 0 C2 0 2 0 3.5078125 1.4765625 C8.74361818 8.43234299 8.65182859 14.51415749 8 23 C5.69 22.67 3.38 22.34 1 22 C0.00137301 14.63512596 -0.10331031 7.42686315 0 0 Z " fill="#F1F1F1" transform="translate(241,168)"/>
<path d="M0 0 C3.3 0 6.6 0 10 0 C9.01 0.33 8.02 0.66 7 1 C7 9.91 7 18.82 7 28 C7.99 28.33 8.98 28.66 10 29 C6.37 29 2.74 29 -1 29 C-0.01 28.34 0.98 27.68 2 27 C2.45002045 24.4178472 2.45002045 24.4178472 2.36328125 21.40625 C2.36231445 19.73755859 2.36231445 19.73755859 2.36132812 18.03515625 C2.34521484 16.86855469 2.32910156 15.70195312 2.3125 14.5 C2.31572266 13.33339844 2.31894531 12.16679687 2.32226562 10.96484375 C2.72534132 4.90738711 2.72534132 4.90738711 0 0 Z " fill="#1A1A1A" transform="translate(197,355)"/>
<path d="M0 0 C6.08654524 0.77289463 10.64426856 4.20676856 14.9375 8.5 C14.9375 9.49 14.9375 10.48 14.9375 11.5 C16.9175 11.5 18.8975 11.5 20.9375 11.5 C20.9375 12.16 20.9375 12.82 20.9375 13.5 C18.2975 13.5 15.6575 13.5 12.9375 13.5 C12.2775 11.85 11.6175 10.2 10.9375 8.5 C8.52130177 8.24969023 8.52130177 8.24969023 5.9375 8.5 C4.9475 9.985 4.9475 9.985 3.9375 11.5 C3.2775 11.5 2.6175 11.5 1.9375 11.5 C2.55027612 8.53824877 3.19122522 7.11941217 4.9375 4.5 C2.08671909 3.73283149 2.08671909 3.73283149 -1.0625 3.5 C-3.65480504 5.28779658 -4.04917605 6.46002815 -5.0625 9.5 C-6.39583333 9.83333333 -7.72916667 10.16666667 -9.0625 10.5 C-9.3925 11.49 -9.7225 12.48 -10.0625 13.5 C-12.7025 13.5 -15.3425 13.5 -18.0625 13.5 C-18.0625 12.84 -18.0625 12.18 -18.0625 11.5 C-17.216875 11.5 -16.37125 11.5 -15.5 11.5 C-10.42247942 10.0229031 -8.26123973 6.53140135 -5.0625 2.5 C-3.0625 0.5 -3.0625 0.5 0 0 Z " fill="#282828" transform="translate(341.0625,166.5)"/>
<path d="M0 0 C3.80241571 1.52096628 7.36474615 3.14010268 11 5 C11 7.97 11 10.94 11 14 C7.37 14 3.74 14 0 14 C0 9.38 0 4.76 0 0 Z " fill="#FBFBFB" transform="translate(310,263)"/>
<path d="M0 0 C2.89684158 -0.10829314 5.78961019 -0.18743954 8.6875 -0.25 C9.50412109 -0.28351563 10.32074219 -0.31703125 11.16210938 -0.3515625 C15.2903855 -0.41841717 17.44294905 -0.33994392 21.046875 1.859375 C23 4 23 4 23.5625 6.5 C22.8459104 9.68484266 21.45824857 10.92585277 19 13 C19.33 13.66 19.66 14.32 20 15 C18.68 15.33 17.36 15.66 16 16 C15.34 15.01 14.68 14.02 14 13 C14.33 12.67 14.66 12.34 15 12 C15.07205511 10.31391034 15.08386068 8.62499341 15.0625 6.9375 C15.041875 5.308125 15.02125 3.67875 15 2 C11.37 1.67 7.74 1.34 4 1 C4 9.58 4 18.16 4 27 C3.67 27 3.34 27 3 27 C3 18.42 3 9.84 3 1 C2.01 0.67 1.02 0.34 0 0 Z " fill="#2C2C2C" transform="translate(193,316)"/>
<path d="M0 0 C6.93 0 13.86 0 21 0 C21 0.33 21 0.66 21 1 C16.545 1.495 16.545 1.495 12 2 C12 5.3 12 8.6 12 12 C7.53828494 10.42527704 2.20311486 8.40622971 0 4 C-0.99 4.495 -0.99 4.495 -2 5 C-2.66 4.34 -3.32 3.68 -4 3 C-3.01 2.67 -2.02 2.34 -1 2 C-0.67 1.34 -0.34 0.68 0 0 Z " fill="#717171" transform="translate(309,254)"/>
<path d="M0 0 C0 0.99 0 1.98 0 3 C-1.96875 4.60546875 -1.96875 4.60546875 -4.5 6.1875 C-5.3353125 6.71730469 -6.170625 7.24710938 -7.03125 7.79296875 C-7.6809375 8.19128906 -8.330625 8.58960938 -9 9 C-13.09621053 6.71094117 -16.53415091 4.14344452 -20 1 C-20 0.34 -20 -0.32 -20 -1 C-17.41718164 -1.22224251 -14.83477813 -1.42823488 -12.25 -1.625 C-11.52039063 -1.68945312 -10.79078125 -1.75390625 -10.0390625 -1.8203125 C-6.14088264 -2.10381649 -3.29354678 -2.27081383 0 0 Z " fill="#F7F6F7" transform="translate(269,142)"/>
<path d="M0 0 C7.92 0 15.84 0 24 0 C24 1.65 24 3.3 24 5 C16.08 5 8.16 5 0 5 C0 3.35 0 1.7 0 0 Z " fill="#FBFBFB" transform="translate(283,261)"/>
<path d="M0 0 C2.52197266 -0.34057617 2.52197266 -0.34057617 5.6640625 -0.29296875 C6.78554688 -0.28330078 7.90703125 -0.27363281 9.0625 -0.26367188 C10.238125 -0.23853516 11.41375 -0.21339844 12.625 -0.1875 C14.40003906 -0.16719727 14.40003906 -0.16719727 16.2109375 -0.14648438 C19.14107539 -0.11103916 22.07031459 -0.06162769 25 0 C25 0.66 25 1.32 25 2 C23.02 2 21.04 2 19 2 C19 2.99 19 3.98 19 5 C12.4 5 5.8 5 -1 5 C-1 7.64 -1 10.28 -1 13 C-1.33 13 -1.66 13 -2 13 C-2.05416188 11.39620659 -2.09286638 9.79188594 -2.125 8.1875 C-2.14820313 7.29417969 -2.17140625 6.40085937 -2.1953125 5.48046875 C-2 3 -2 3 0 0 Z " fill="#7C7C7C" transform="translate(283,254)"/>
<path d="M0 0 C4.02642005 -0.49303103 7.5420642 -0.86992855 11.12109375 1.265625 C16.83170606 6.15704345 16.83170606 6.15704345 17.23828125 10.609375 C17.49014399 21.26714553 17.49014399 21.26714553 13 26 C8.7604485 29.53295958 5.28561944 29.26876031 0 29 C0 28.67 0 28.34 0 28 C0.61488281 27.91363281 1.22976563 27.82726562 1.86328125 27.73828125 C2.67152344 27.59777344 3.47976563 27.45726562 4.3125 27.3125 C5.11300781 27.18488281 5.91351563 27.05726563 6.73828125 26.92578125 C9.9345774 25.61745277 10.63448193 24.1341891 12 21 C12.47195283 17.82103642 12.47195283 17.82103642 12.375 14.5 C12.38273437 13.3965625 12.39046875 12.293125 12.3984375 11.15625 C11.95239663 7.62290663 11.24321005 5.7582075 9 3 C6.76162201 1.98325288 6.76162201 1.98325288 4.3125 1.6875 C3.50425781 1.54699219 2.69601562 1.40648437 1.86328125 1.26171875 C1.24839844 1.17535156 0.63351562 1.08898437 0 1 C0 0.67 0 0.34 0 0 Z " fill="#191919" transform="translate(257,355)"/>
<path d="M0 0 C7.59 0 15.18 0 23 0 C23 1.65 23 3.3 23 5 C15.41 5 7.82 5 0 5 C0 3.35 0 1.7 0 0 Z " fill="#FFFFFF" transform="translate(284,269)"/>
<path d="M0 0 C3.37937956 0.60346064 5.52631272 1.59588117 8 4 C8.45410156 6.72729492 8.45410156 6.72729492 8.390625 9.98046875 C8.37773437 11.14384766 8.36484375 12.30722656 8.3515625 13.50585938 C8.31804687 14.72080078 8.28453125 15.93574219 8.25 17.1875 C8.23195313 18.41404297 8.21390625 19.64058594 8.1953125 20.90429688 C8.14811124 23.93697759 8.08227677 26.96810087 8 30 C7.67 30 7.34 30 7 30 C6.91363281 29.24976563 6.82726562 28.49953125 6.73828125 27.7265625 C5.82933 21.10539468 4.25982308 16.16589637 1.04296875 10.3359375 C-0.56433976 6.73604802 -0.35959133 3.88358633 0 0 Z " fill="#E7E6E7" transform="translate(251,159)"/>
<path d="M0 0 C9.59453303 1.74259681 9.59453303 1.74259681 13 5 C12.67 5.66 12.34 6.32 12 7 C7.545 4.525 7.545 4.525 3 2 C3 6.62 3 11.24 3 16 C2.01 15.01 1.02 14.02 0 13 C0 11.35 0 9.7 0 8 C-7.59 8 -15.18 8 -23 8 C-23 9.65 -23 11.3 -23 13 C-23.33 13 -23.66 13 -24 13 C-24 10.36 -24 7.72 -24 5 C-16.08 5 -8.16 5 0 5 C0 3.35 0 1.7 0 0 Z " fill="#565656" transform="translate(307,261)"/>
<path d="M0 0 C6 0 6 0 7.875 1.0625 C9.64273274 4.1069286 9.36823916 6.5631012 9 10 C7.875 11.9375 7.875 11.9375 6 13 C4.02 13 2.04 13 0 13 C0 8.71 0 4.42 0 0 Z " fill="#FAFAFA" transform="translate(320,356)"/>
<path d="M0 0 C4.27257094 7.48568323 3.10828352 17.47401106 3.1875 25.875 C3.20707764 27.08748413 3.20707764 27.08748413 3.22705078 28.32446289 C3.23376882 32.95366985 2.77205308 36.64341102 1 41 C0.67 41 0.34 41 0 41 C-0.1674126 35.48259702 -0.32799286 29.96505413 -0.48217773 24.44726562 C-0.53562556 22.56928117 -0.59095705 20.69134937 -0.64819336 18.81347656 C-0.7300268 16.11795404 -0.80513683 13.42231625 -0.87890625 10.7265625 C-0.90594131 9.88380768 -0.93297638 9.04105286 -0.96083069 8.17276001 C-1.11387171 2.22774341 -1.11387171 2.22774341 0 0 Z " fill="#383838" transform="translate(347,234)"/>
<path d="M0 0 C5 0 5 0 6.8125 1.125 C8.57844751 3.91333817 8.46181576 5.76728968 8 9 C6.1329009 11.30275556 4.64352259 12.67823871 2 14 C0.55151418 14.08342159 -0.90070869 14.10732861 -2.3515625 14.09765625 C-3.20234375 14.09443359 -4.053125 14.09121094 -4.9296875 14.08789062 C-5.81914062 14.07951172 -6.70859375 14.07113281 -7.625 14.0625 C-8.97078125 14.05573242 -8.97078125 14.05573242 -10.34375 14.04882812 C-12.56256648 14.03702591 -14.78125018 14.02056155 -17 14 C-17 13.67 -17 13.34 -17 13 C-15.41058594 12.90912109 -15.41058594 12.90912109 -13.7890625 12.81640625 C-12.40102779 12.73199873 -11.01300768 12.64735083 -9.625 12.5625 C-8.92632812 12.52318359 -8.22765625 12.48386719 -7.5078125 12.44335938 C-3.62639508 12.25719866 -3.62639508 12.25719866 0 11 C0 7.37 0 3.74 0 0 Z " fill="#141414" transform="translate(210,331)"/>
<path d="M0 0 C0.66 0 1.32 0 2 0 C3.98 15.84 5.96 31.68 8 48 C5.525 48.495 5.525 48.495 3 49 C3 48.34 3 47.68 3 47 C3.99 47 4.98 47 6 47 C5.88027832 46.45432373 5.76055664 45.90864746 5.63720703 45.34643555 C4.13590827 38.21126975 3.09424703 31.03964116 2.14013672 23.81274414 C1.87396277 21.80467493 1.59935843 19.79787373 1.32421875 17.79101562 C1.15277344 16.50517578 0.98132813 15.21933594 0.8046875 13.89453125 C0.64983887 12.73800049 0.49499023 11.58146973 0.33544922 10.38989258 C-0.00950376 6.90395943 -0.05736384 3.50058659 0 0 Z " fill="#101010" transform="translate(337,232)"/>
<path d="M0 0 C0 4.62 0 9.24 0 14 C-2.70879335 15.35439668 -5.00933268 15.06501451 -8 15 C-8.41903446 11.57455959 -8.61401833 8.4083221 -8 5 C-6.11075999 2.79588666 -3.10547881 0 0 0 Z " fill="#F5F5F5" transform="translate(228,176)"/>
<path d="M0 0 C0.99 0 1.98 0 3 0 C3.01458252 0.77714355 3.02916504 1.55428711 3.04418945 2.35498047 C3.11846978 5.86216688 3.21519589 9.3683801 3.3125 12.875 C3.33505859 14.09832031 3.35761719 15.32164062 3.38085938 16.58203125 C3.41630859 17.74863281 3.45175781 18.91523438 3.48828125 20.1171875 C3.51446533 21.19597168 3.54064941 22.27475586 3.56762695 23.38623047 C3.71031006 24.24877441 3.85299316 25.11131836 4 26 C4.99 26.66 5.98 27.32 7 28 C3.37 28 -0.26 28 -4 28 C-3.01 27.34 -2.02 26.68 -1 26 C-0.489395 23.28995497 -0.489395 23.28995497 -0.48828125 20.1171875 C-0.43510742 18.36728516 -0.43510742 18.36728516 -0.38085938 16.58203125 C-0.35830078 15.35871094 -0.33574219 14.13539063 -0.3125 12.875 C-0.27833984 11.64394531 -0.24417969 10.41289062 -0.20898438 9.14453125 C-0.12628436 6.0964449 -0.05720573 3.04865429 0 0 Z " fill="#050505" transform="translate(316,356)"/>
<path d="M0 0 C0.33 0 0.66 0 1 0 C1.66 19.14 2.32 38.28 3 58 C2.01 58 1.02 58 0 58 C0 38.86 0 19.72 0 0 Z " fill="#B1B1B1" transform="translate(327,193)"/>
<path d="M0 0 C-0.33 0.99 -0.66 1.98 -1 3 C4.61 3 10.22 3 16 3 C16 3.99 16 4.98 16 6 C9.4 6.33 2.8 6.66 -4 7 C-4.33 6.01 -4.66 5.02 -5 4 C-6.65 4.66 -8.3 5.32 -10 6 C-8.20404732 1.26521567 -5.07984355 -1.69328118 0 0 Z " fill="#373737" transform="translate(216,193)"/>
<path d="M0 0 C1.67542976 0.28604898 3.34385343 0.61781233 5 1 C5.02708567 2.60407328 5.04643483 4.2082785 5.0625 5.8125 C5.07410156 6.70582031 5.08570313 7.59914063 5.09765625 8.51953125 C5 11 5 11 4 14 C2.35 14 0.7 14 -1 14 C-1.02685938 11.85423363 -1.04633088 9.70837355 -1.0625 7.5625 C-1.07410156 6.36753906 -1.08570313 5.17257812 -1.09765625 3.94140625 C-1 1 -1 1 0 0 Z " fill="#EDEDED" transform="translate(204,317)"/>
<path d="M0 0 C0.33 0 0.66 0 1 0 C1 4.62 1 9.24 1 14 C-1.64 13.67 -4.28 13.34 -7 13 C-7 10.03 -7 7.06 -7 4 C-5.68 4.33 -4.36 4.66 -3 5 C-2.67 5.66 -2.34 6.32 -2 7 C-1.34 4.69 -0.68 2.38 0 0 Z " fill="#F2F2F2" transform="translate(278,177)"/>
<path d="M0 0 C5.6373057 2.73056995 5.6373057 2.73056995 8 5 C8.74280707 8.26616638 8.40457361 10.61169603 8 14 C5.36 12.68 2.72 11.36 0 10 C0 6.7 0 3.4 0 0 Z " fill="#F3F3F3" transform="translate(271,147)"/>
<path d="M0 0 C3.96 1.98 3.96 1.98 8 4 C8 6.64 8 9.28 8 12 C5.36 11.67 2.72 11.34 0 11 C0 7.37 0 3.74 0 0 Z " fill="#FBFBFB" transform="translate(261,177)"/>
<path d="M0 0 C0.66 0.33 1.32 0.66 2 1 C1.0495074 3.55901853 0.08059534 5.87178014 -1.375 8.1875 C-3.73019622 12.26380115 -5.32079031 16.61018786 -7 21 C-7.33 21 -7.66 21 -8 21 C-8.35104559 14.53816085 -8.28912194 9.67089989 -5 4 C-2.3125 1.5625 -2.3125 1.5625 0 0 Z " fill="#433F40" transform="translate(148,204)"/>
<path d="M0 0 C0.99 0.33 1.98 0.66 3 1 C3 9.58 3 18.16 3 27 C3.99 27.33 4.98 27.66 6 28 C5.67 28.66 5.34 29.32 5 30 C3.02 30 1.04 30 -1 30 C-1.33 29.01 -1.66 28.02 -2 27 C-1.34 27 -0.68 27 0 27 C0 18.09 0 9.18 0 0 Z " fill="#666666" transform="translate(289,161)"/>
<path d="M0 0 C1.64574566 -0.02688151 3.29161413 -0.04634123 4.9375 -0.0625 C5.85402344 -0.07410156 6.77054688 -0.08570313 7.71484375 -0.09765625 C10 0 10 0 11 1 C10.71269945 3.33944736 10.38063221 5.6739143 10 8 C8.35 8 6.7 8 5 8 C5 5.69 5 3.38 5 1 C4.34 1 3.68 1 3 1 C3 3.31 3 5.62 3 8 C2.34 8 1.68 8 1 8 C0.67 5.36 0.34 2.72 0 0 Z " fill="#545454" transform="translate(148,350)"/>
<path d="M0 0 C4.62 0 9.24 0 14 0 C11.42066109 2.57933891 9.56158672 3.97362706 6.4375 5.6875 C5.65246094 6.12449219 4.86742187 6.56148438 4.05859375 7.01171875 C2 8 2 8 0 8 C0 5.36 0 2.72 0 0 Z " fill="#E6E6E6" transform="translate(220,257)"/>
<path d="M0 0 C6.875 3.875 6.875 3.875 8 5 C8.04063832 6.66617115 8.042721 8.33388095 8 10 C5.36 10.33 2.72 10.66 0 11 C0 7.37 0 3.74 0 0 Z " fill="#FAFAFA" transform="translate(312,178)"/>
<path d="M0 0 C0.66 0 1.32 0 2 0 C2 3.96 2 7.92 2 12 C4.31 12 6.62 12 9 12 C3.09876585 15.9341561 -2.11942374 16.27522305 -9 16 C-9.33 15.34 -9.66 14.68 -10 14 C-6.7 14 -3.4 14 0 14 C0 9.38 0 4.76 0 0 Z " fill="#080808" transform="translate(310,177)"/>
<path d="M0 0 C1.670625 0.061875 1.670625 0.061875 3.375 0.125 C3.375 0.785 3.375 1.445 3.375 2.125 C2.26125 2.351875 1.1475 2.57875 0 2.8125 C-1.19625 3.245625 -2.3925 3.67875 -3.625 4.125 C-4.84369929 6.62947516 -4.84369929 6.62947516 -5.625 9.125 C-7.6875 9.75 -7.6875 9.75 -9.625 10.125 C-9.955 11.115 -10.285 12.105 -10.625 13.125 C-13.265 13.125 -15.905 13.125 -18.625 13.125 C-18.625 12.465 -18.625 11.805 -18.625 11.125 C-17.779375 11.125 -16.93375 11.125 -16.0625 11.125 C-10.98497942 9.6479031 -8.82373973 6.15640135 -5.625 2.125 C-3.625 0.125 -3.625 0.125 0 0 Z " fill="#191919" transform="translate(341.625,166.875)"/>
<path d="M0 0 C2.64 0 5.28 0 8 0 C7.01 0.33 6.02 0.66 5 1 C5 10.24 5 19.48 5 29 C4.67 29 4.34 29 4 29 C3.855625 27.88625 3.71125 26.7725 3.5625 25.625 C3.21627965 22.17857953 3.21627965 22.17857953 2 20 C1.94011465 18.64712743 1.9393786 17.2912884 1.97265625 15.9375 C1.98490234 15.14085937 1.99714844 14.34421875 2.00976562 13.5234375 C2.04492367 11.84105971 2.08398681 10.15875899 2.12695312 8.4765625 C2.13791016 7.67992187 2.14886719 6.88328125 2.16015625 6.0625 C2.17699463 5.33160156 2.19383301 4.60070312 2.21118164 3.84765625 C2.16563446 1.75081088 2.16563446 1.75081088 0 0 Z " fill="#757575" transform="translate(233,355)"/>
<path d="M0 0 C3.3 0 6.6 0 10 0 C10 2.64 10 5.28 10 8 C6.14354522 6.86059291 2.93494171 5.82205934 0 3 C0 2.01 0 1.02 0 0 Z " fill="#EFEFEF" transform="translate(310,257)"/>
<path d="M0 0 C3.3 0 6.6 0 10 0 C9.67 1.98 9.34 3.96 9 6 C6.03 6 3.06 6 0 6 C0 4.02 0 2.04 0 0 Z " fill="#0B0A0A" transform="translate(249,197)"/>
<path d="M0 0 C0 2.31 0 4.62 0 7 C-2.31 6.67 -4.62 6.34 -7 6 C-7 6.66 -7 7.32 -7 8 C-8.65 8 -10.3 8 -12 8 C-10.60364382 4.62547256 -9.1393647 2.88361882 -6 1 C-2.09090909 0 -2.09090909 0 0 0 Z " fill="#282828" transform="translate(218,183)"/>
<path d="M0 0 C2.95183101 2.95183101 3.08663988 5.95511947 4 10 C1.36 10 -1.28 10 -4 10 C-3.38461538 3.47692308 -3.38461538 3.47692308 -1.4375 1.0625 C-0.7259375 0.5365625 -0.7259375 0.5365625 0 0 Z " fill="#D5D5D5" transform="translate(295,323)"/>
<path d="M0 0 C0.33 0 0.66 0 1 0 C1.39224394 4.45699406 1.76087784 8.9156274 2.125 13.375 C2.23714844 14.64601562 2.34929687 15.91703125 2.46484375 17.2265625 C2.56152344 18.43828125 2.65820312 19.65 2.7578125 20.8984375 C2.8520752 22.01911621 2.94633789 23.13979492 3.04345703 24.29443359 C3 27 3 27 1 29 C-1.125 28.625 -1.125 28.625 -3 28 C-2.01 28 -1.02 28 0 28 C-0.26103516 26.60587891 -0.26103516 26.60587891 -0.52734375 25.18359375 C-1.24957834 20.12795163 -0.86455055 15.14180981 -0.5625 10.0625 C-0.48418945 8.6074707 -0.48418945 8.6074707 -0.40429688 7.12304688 C-0.27561558 4.74829212 -0.14070204 2.37406771 0 0 Z " fill="#393939" transform="translate(330,223)"/>
<path d="M0 0 C0.33 0 0.66 0 1 0 C1 4.29 1 8.58 1 13 C0.34 13 -0.32 13 -1 13 C-1 12.34 -1 11.68 -1 11 C-1.99 11.495 -1.99 11.495 -3 12 C-3.40729228 14.32156597 -3.74438677 16.6568787 -4 19 C-4.33 19 -4.66 19 -5 19 C-5.433125 17.3603125 -5.433125 17.3603125 -5.875 15.6875 C-6.81893204 11.95986155 -6.81893204 11.95986155 -9 9 C-7.35 9 -5.7 9 -4 9 C-4.33 7.68 -4.66 6.36 -5 5 C-3.68 5.66 -2.36 6.32 -1 7 C-0.67 4.69 -0.34 2.38 0 0 Z " fill="#0C0C0C" transform="translate(280,154)"/>
<path d="M0 0 C3 1 3 1 4.1875 3.3125 C5 6 5 6 5 10 C2.69 10 0.38 10 -2 10 C-1.34 6.7 -0.68 3.4 0 0 Z " fill="#DFDFDF" transform="translate(233,323)"/>
<path d="M0 0 C0.66 0 1.32 0 2 0 C2 0.99 2 1.98 2 3 C2.99 3.33 3.98 3.66 5 4 C4.34 4.66 3.68 5.32 3 6 C2.75684344 8.66949409 2.75684344 8.66949409 2.875 11.625 C2.90207031 13.12933594 2.90207031 13.12933594 2.9296875 14.6640625 C2.95289063 15.43492187 2.97609375 16.20578125 3 17 C1.68 16.67 0.36 16.34 -1 16 C-1 12.7 -1 9.4 -1 6 C-1.66 6 -2.32 6 -3 6 C-2.67 5.01 -2.34 4.02 -2 3 C-1.34 3 -0.68 3 0 3 C0 2.01 0 1.02 0 0 Z " fill="#080808" transform="translate(269,142)"/>
<path d="M0 0 C2.62547809 0.99400817 3.76624279 1.49882454 4.9765625 4.09375 C5.29753906 5.28484375 5.29753906 5.28484375 5.625 6.5 C6.60483709 10.13021537 6.60483709 10.13021537 9 13 C7.02 13 5.04 13 3 13 C2.49487756 11.39743892 1.99608373 9.79288208 1.5 8.1875 C1.2215625 7.29417969 0.943125 6.40085937 0.65625 5.48046875 C0 3 0 3 0 0 Z " fill="#0D0D0D" transform="translate(327,371)"/>
<path d="M0 0 C0.33 0 0.66 0 1 0 C1.33 2.97 1.66 5.94 2 9 C2.66 9 3.32 9 4 9 C4.33 10.65 4.66 12.3 5 14 C3.02 14.33 1.04 14.66 -1 15 C-1.02685412 12.68756208 -1.04632841 10.3750373 -1.0625 8.0625 C-1.07410156 6.77472656 -1.08570313 5.48695313 -1.09765625 4.16015625 C-1 1 -1 1 0 0 Z " fill="#D7D7D7" transform="translate(231,174)"/>
<path d="M0 0 C2.35171131 0.59861742 4.6859378 1.26924352 7 2 C7.33 2.66 7.66 3.32 8 4 C7.67 4.99 7.34 5.98 7 7 C6.01 7 5.02 7 4 7 C4 9.97 4 12.94 4 16 C3.67 16 3.34 16 3 16 C3 12.7 3 9.4 3 6 C2.34 6 1.68 6 1 6 C0.67 4.02 0.34 2.04 0 0 Z " fill="#545454" transform="translate(322,185)"/>
<path d="M0 0 C0.33 0 0.66 0 1 0 C1 3.96 1 7.92 1 12 C2.65 11.67 4.3 11.34 6 11 C6.66 9.68 7.32 8.36 8 7 C8 10.63 8 14.26 8 18 C7.01 16.68 6.02 15.36 5 14 C3.68 13.67 2.36 13.34 1 13 C1 16.63 1 20.26 1 24 C0.67 24 0.34 24 0 24 C0 16.08 0 8.16 0 0 Z " fill="#616161" transform="translate(175,357)"/>
<path d="M0 0 C0.83265381 0.04713135 1.66530762 0.0942627 2.52319336 0.14282227 C3.871875 0.21533203 3.871875 0.21533203 5.24780273 0.28930664 C6.19333008 0.34538086 7.13885742 0.40145508 8.11303711 0.45922852 C9.53712891 0.53753906 9.53712891 0.53753906 10.98999023 0.61743164 C13.34380663 0.74754209 15.6972441 0.88251963 18.05053711 1.02172852 C17.72053711 1.68172852 17.39053711 2.34172852 17.05053711 3.02172852 C10.12053711 2.52672852 10.12053711 2.52672852 3.05053711 2.02172852 C3.05053711 3.67172852 3.05053711 5.32172852 3.05053711 7.02172852 C1.05053711 4.02172852 1.05053711 4.02172852 1.05053711 2.02172852 C0.06053711 2.02172852 -0.92946289 2.02172852 -1.94946289 2.02172852 C-1.94946289 5.65172852 -1.94946289 9.28172852 -1.94946289 13.02172852 C-2.27946289 13.02172852 -2.60946289 13.02172852 -2.94946289 13.02172852 C-2.97632842 11.04263454 -2.99579665 9.06343881 -3.01196289 7.08422852 C-3.02356445 5.98208008 -3.03516602 4.87993164 -3.04711914 3.74438477 C-2.91398048 0.03247893 -2.91398048 0.03247893 0 0 Z " fill="#080808" transform="translate(216.949462890625,254.978271484375)"/>
<path d="M0 0 C4.95 0 9.9 0 15 0 C15 0.99 15 1.98 15 3 C10.05 3 5.1 3 0 3 C0 2.01 0 1.02 0 0 Z " fill="#4C4C4C" transform="translate(264,217)"/>
<path d="M0 0 C0 3.3 0 6.6 0 10 C-4.75 8.8125 -4.75 8.8125 -7 6 C-7 5.34 -7 4.68 -7 4 C-1.47058824 0 -1.47058824 0 0 0 Z " fill="#F7F7F7" transform="translate(269,147)"/>
<path d="M0 0 C0.33 0 0.66 0 1 0 C1 3.96 1 7.92 1 12 C4.465 11.505 4.465 11.505 8 11 C8 12.32 8 13.64 8 15 C5.69 14.67 3.38 14.34 1 14 C1 17.63 1 21.26 1 25 C0.67 25 0.34 25 0 25 C0 16.75 0 8.5 0 0 Z " fill="#8A8A8A" transform="translate(319,357)"/>
<path d="M0 0 C0.66 0 1.32 0 2 0 C2.12375 0.62648438 2.2475 1.25296875 2.375 1.8984375 C3.03058505 4.49619326 3.68614325 6.65902397 5 9 C7.76105166 10.45404496 9.83705627 10.63703924 13 11 C13 11.33 13 11.66 13 12 C8.52572076 12.08948558 4.39436211 11.85743651 0 11 C0 7.37 0 3.74 0 0 Z " fill="#555555" transform="translate(258,334)"/>
<path d="M0 0 C0.33 0.99 0.66 1.98 1 3 C0.67 3.66 0.34 4.32 0 5 C2.64 4.67 5.28 4.34 8 4 C8 4.66 8 5.32 8 6 C5.03 6 2.06 6 -1 6 C-1.33 8.97 -1.66 11.94 -2 15 C-1.01 15.66 -0.02 16.32 1 17 C-1.97 17 -4.94 17 -8 17 C-7.56042969 16.47921875 -7.12085938 15.9584375 -6.66796875 15.421875 C-4.65320726 12.49646018 -3.54408204 9.57860011 -2.3125 6.25 C-1.87550781 5.07953125 -1.43851563 3.9090625 -0.98828125 2.703125 C-0.66214844 1.81109375 -0.33601562 0.9190625 0 0 Z " fill="#4D4D4D" transform="translate(231,328)"/>
<path d="M0 0 C2.14915785 3.22373677 2.38286803 4.26703674 2 8 C1.34 8.66 0.68 9.32 0 10 C-0.99 9.67 -1.98 9.34 -3 9 C-2.34 9 -1.68 9 -1 9 C-1 8.01 -1 7.02 -1 6 C-7.27 6 -13.54 6 -20 6 C-20 5.67 -20 5.34 -20 5 C-19.01257813 4.93941406 -18.02515625 4.87882813 -17.0078125 4.81640625 C-15.72648437 4.73261719 -14.44515625 4.64882812 -13.125 4.5625 C-11.84882813 4.48128906 -10.57265625 4.40007812 -9.2578125 4.31640625 C-6.11699848 4.20793973 -6.11699848 4.20793973 -4 3 C-4 3.66 -4 4.32 -4 5 C-2.68 5 -1.36 5 0 5 C0 3.35 0 1.7 0 0 Z " fill="#000000" transform="translate(331,247)"/>
<path d="M0 0 C0.33 0 0.66 0 1 0 C0.39292984 9.33854735 -0.26058807 18.67082393 -1 28 C-1.33 28 -1.66 28 -2 28 C-2.05841253 24.45840343 -2.09373452 20.91693207 -2.125 17.375 C-2.14175781 16.37597656 -2.15851563 15.37695312 -2.17578125 14.34765625 C-2.21014246 9.15911291 -2.10254937 4.85076351 0 0 Z " fill="#0D0D0D" transform="translate(331,208)"/>
<path d="M0 0 C0.59167969 0.08378906 1.18335938 0.16757812 1.79296875 0.25390625 C6.78080551 0.92722213 6.78080551 0.92722213 11.75 0.4375 C14.69835292 -0.13579085 16.34721226 0.7115031 19 2 C15.53097345 4.10619469 15.53097345 4.10619469 12.8125 3.5625 C12.214375 3.376875 11.61625 3.19125 11 3 C10.67 3.33 10.34 3.66 10 4 C3.53846154 4.35897436 3.53846154 4.35897436 0 2 C0 1.34 0 0.68 0 0 Z " fill="#363636" transform="translate(338,289)"/>
<path d="M0 0 C1.98 0 3.96 0 6 0 C5.67 0.66 5.34 1.32 5 2 C4.92966231 3.87379605 4.9156978 5.75001102 4.9375 7.625 C4.95103516 9.12933594 4.95103516 9.12933594 4.96484375 10.6640625 C4.97644531 11.43492187 4.98804688 12.20578125 5 13 C2.03 12.505 2.03 12.505 -1 12 C-0.67 11.34 -0.34 10.68 0 10 C0.66 10 1.32 10 2 10 C1.855625 8.72125 1.71125 7.4425 1.5625 6.125 C1.48128906 5.40570313 1.40007812 4.68640625 1.31640625 3.9453125 C1.08707039 1.92595684 1.08707039 1.92595684 0 0 Z " fill="#070707" transform="translate(267,179)"/>
<path d="M0 0 C5.08938811 1.59043379 8.87456643 4.7446951 13 8 C12.34 8.66 11.68 9.32 11 10 C10.01 9.34 9.02 8.68 8 8 C7.67 10.31 7.34 12.62 7 15 C6.67 15 6.34 15 6 15 C6 11.7 6 8.4 6 5 C4.68 4.34 3.36 3.68 2 3 C1.34 2.67 0.68 2.34 0 2 C0 1.34 0 0.68 0 0 Z " fill="#1D1D1D" transform="translate(273,147)"/>
<path d="M0 0 C0 1.98 0 3.96 0 6 C-0.99 6.495 -0.99 6.495 -2 7 C-2 5.68 -2 4.36 -2 3 C-5.96 3 -9.92 3 -14 3 C-14 2.34 -14 1.68 -14 1 C-11.85420251 0.83287252 -9.70836101 0.66631 -7.5625 0.5 C-5.77005859 0.36078125 -5.77005859 0.36078125 -3.94140625 0.21875 C-1 0 -1 0 0 0 Z " fill="#0C0C0C" transform="translate(327,244)"/>
<path d="M0 0 C3.96 0 7.92 0 12 0 C12 0.99 12 1.98 12 3 C8.04 3 4.08 3 0 3 C0 2.01 0 1.02 0 0 Z " fill="#4F4F4F" transform="translate(312,217)"/>
<path d="M0 0 C0.33 0 0.66 0 1 0 C1 5.28 1 10.56 1 16 C2.65 16 4.3 16 6 16 C4 18 4 18 1.8359375 18.1953125 C1.02382812 18.17210937 0.21171875 18.14890625 -0.625 18.125 C-1.44226563 18.10695312 -2.25953125 18.08890625 -3.1015625 18.0703125 C-3.72804687 18.04710937 -4.35453125 18.02390625 -5 18 C-5 17.34 -5 16.68 -5 16 C-3.35 16 -1.7 16 0 16 C0 10.72 0 5.44 0 0 Z " fill="#060506" transform="translate(249,175)"/>
<path d="M0 0 C0.33 0 0.66 0 1 0 C1.01458252 0.71655762 1.02916504 1.43311523 1.04418945 2.17138672 C1.11849 5.40647983 1.21520861 8.64052019 1.3125 11.875 C1.33505859 13.00292969 1.35761719 14.13085938 1.38085938 15.29296875 C1.41630859 16.36933594 1.45175781 17.44570313 1.48828125 18.5546875 C1.51446533 19.54968262 1.54064941 20.54467773 1.56762695 21.56982422 C1.78165161 22.77276123 1.78165161 22.77276123 2 24 C2.99 24.66 3.98 25.32 5 26 C2.36 26 -0.28 26 -3 26 C-2.34 25.34 -1.68 24.68 -1 24 C-0.62864085 21.47962036 -0.62864085 21.47962036 -0.5859375 18.5546875 C-0.54726562 17.47832031 -0.50859375 16.40195312 -0.46875 15.29296875 C-0.4378125 14.16503906 -0.406875 13.03710938 -0.375 11.875 C-0.33632812 10.73933594 -0.29765625 9.60367187 -0.2578125 8.43359375 C-0.16332399 5.62256044 -0.07776459 2.81153767 0 0 Z " fill="#404040" transform="translate(218,358)"/>
<path d="M0 0 C1.98 0.495 1.98 0.495 4 1 C4 2.98 4 4.96 4 7 C2.0625 7.5625 2.0625 7.5625 0 8 C-0.33 7.67 -0.66 7.34 -1 7 C-0.71269945 4.66055264 -0.38063221 2.3260857 0 0 Z " fill="#616161" transform="translate(352,350)"/>
<path d="M0 0 C4.13574827 -0.0984702 7.93631321 0.22596442 12 1 C12 3.97 12 6.94 12 10 C11.34 10 10.68 10 10 10 C9.835 9.071875 9.67 8.14375 9.5 7.1875 C7.8157353 3.60843752 7.3893481 3.41028278 3.875 2.125 C2.59017024 1.72720573 1.30008745 1.34467435 0 1 C0 0.67 0 0.34 0 0 Z " fill="#525252" transform="translate(265,315)"/>
<path d="M0 0 C0.66 0 1.32 0 2 0 C2 0.66 2 1.32 2 2 C4.97 2 7.94 2 11 2 C11 2.33 11 2.66 11 3 C2.51200811 3.80542989 -5.53438902 4.12298921 -14 3 C-14 2.67 -14 2.34 -14 2 C-9.38 2 -4.76 2 0 2 C0 1.34 0 0.68 0 0 Z " fill="#2C2C2C" transform="translate(324,275)"/>
<path d="M0 0 C0.99 0 1.98 0 3 0 C3.12036664 5.77759884 2.8320582 11.27959989 2 17 C1.67 17 1.34 17 1 17 C0.67 11.39 0.34 5.78 0 0 Z " fill="#C0C0C0" transform="translate(322,257)"/>
<path d="M0 0 C0.99 0 1.98 0 3 0 C2.67 6.6 2.34 13.2 2 20 C1.67 20 1.34 20 1 20 C0.67 13.4 0.34 6.8 0 0 Z " fill="#C6C6C6" transform="translate(215,257)"/>
<path d="M0 0 C2.86724686 0.57344937 3.8614515 0.8614515 6 3 C6 3.99 6 4.98 6 6 C7.98 6 9.96 6 12 6 C12 6.66 12 7.32 12 8 C9.36 8 6.72 8 4 8 C3.71125 7.236875 3.4225 6.47375 3.125 5.6875 C2.03730987 2.84970692 2.03730987 2.84970692 0 0 Z " fill="#090909" transform="translate(350,172)"/>
<path d="M0 0 C2.93446886 1.41791563 5.43332409 2.98332607 8 5 C8.66 4.67 9.32 4.34 10 4 C9.67 5.32 9.34 6.64 9 8 C7.68 8 6.36 8 5 8 C3.515625 6.25 3.515625 6.25 2.25 4 C1.82203125 3.2575 1.3940625 2.515 0.953125 1.75 C0.63859375 1.1725 0.3240625 0.595 0 0 Z " fill="#DAD9D9" transform="translate(230,158)"/>
<path d="M0 0 C0.66 0 1.32 0 2 0 C3.12862175 5.36095333 3.09688221 10.55306686 3 16 C0.65229357 12.47844036 0.62330386 10.49228157 0.375 6.3125 C0.30023438 5.13300781 0.22546875 3.95351562 0.1484375 2.73828125 C0.09945313 1.83464844 0.05046875 0.93101562 0 0 Z " fill="#171717" transform="translate(337,232)"/>
<path d="M0 0 C0.33 0 0.66 0 1 0 C1 2.31 1 4.62 1 7 C0.01 7.33 -0.98 7.66 -2 8 C-2.99 7.34 -3.98 6.68 -5 6 C-4.67 4.68 -4.34 3.36 -4 2 C-3.01 2 -2.02 2 -1 2 C-0.67 1.34 -0.34 0.68 0 0 Z " fill="#717171" transform="translate(211,203)"/>
<path d="M0 0 C4.81033104 2.54664585 8.32442148 4.99027798 12 9 C11.01 9.495 11.01 9.495 10 10 C8.32756598 8.71580959 6.66218553 7.42242815 5 6.125 C3.6078125 5.04605469 3.6078125 5.04605469 2.1875 3.9453125 C1.465625 3.30335938 0.74375 2.66140625 0 2 C0 1.34 0 0.68 0 0 Z " fill="#161616" transform="translate(302,168)"/>
<path d="M0 0 C0.33 0.66 0.66 1.32 1 2 C-4.28 2.66 -9.56 3.32 -15 4 C-12.39457984 2.26305323 -10.41657225 1.30899552 -7.5 0.3125 C-6.33984375 -0.09548828 -6.33984375 -0.09548828 -5.15625 -0.51171875 C-3 -1 -3 -1 0 0 Z " fill="#464243" transform="translate(133,289)"/>
<path d="M0 0 C0.66 0.33 1.32 0.66 2 1 C1.67 4.63 1.34 8.26 1 12 C0.34 12 -0.32 12 -1 12 C-1.02687279 10.18757948 -1.04633715 8.37504767 -1.0625 6.5625 C-1.07410156 5.55316406 -1.08570313 4.54382813 -1.09765625 3.50390625 C-1 1 -1 1 0 0 Z " fill="#4C4949" transform="translate(150,214)"/>
<path d="M0 0 C0.33 0 0.66 0 1 0 C1 2.31 1 4.62 1 7 C-1.31 6.67 -3.62 6.34 -6 6 C-4 4 -2 2 0 0 Z " fill="#F3F3F3" transform="translate(217,183)"/>
<path d="M0 0 C1.32 0 2.64 0 4 0 C4 3.11257569 3.82638376 5.10765685 3 8 C1.68 7.67 0.36 7.34 -1 7 C-0.34 6.34 0.32 5.68 1 5 C0.34 3.68 -0.32 2.36 -1 1 C-0.67 0.67 -0.34 0.34 0 0 Z " fill="#3F3F3F" transform="translate(143,350)"/>
<path d="M0 0 C1.32 0 2.64 0 4 0 C4 2.31 4 4.62 4 7 C2.68 7.33 1.36 7.66 0 8 C-0.33 7.34 -0.66 6.68 -1 6 C-0.01 6 0.98 6 2 6 C2 5.34 2 4.68 2 4 C1.34 4 0.68 4 0 4 C0 2.68 0 1.36 0 0 Z " fill="#494949" transform="translate(363,350)"/>
<path d="M0 0 C1.32 0.33 2.64 0.66 4 1 C3.34 1 2.68 1 2 1 C2 1.66 2 2.32 2 3 C2.66 3.33 3.32 3.66 4 4 C3.34 4 2.68 4 2 4 C2 4.66 2 5.32 2 6 C2.99 6 3.98 6 5 6 C5 6.66 5 7.32 5 8 C3.35 8 1.7 8 0 8 C0 5.36 0 2.72 0 0 Z " fill="#313131" transform="translate(136,350)"/>
<path d="M0 0 C1.32 1.32 2.64 2.64 4 4 C-0.62 3.34 -5.24 2.68 -10 2 C-6.2794164 -0.48038907 -4.40203429 -0.46337203 0 0 Z " fill="#DBDADA" transform="translate(247,143)"/>
<path d="M0 0 C3.63 0 7.26 0 11 0 C11 2.31 11 4.62 11 7 C10.34 7 9.68 7 9 7 C9 5.35 9 3.7 9 2 C6.03 1.67 3.06 1.34 0 1 C0 0.67 0 0.34 0 0 Z " fill="#393939" transform="translate(292,355)"/>
<path d="M0 0 C2 1 2 1 3.125 3.0625 C4.2583306 6.86725273 4.13434296 10.0368828 4 14 C1.90284215 10.85426323 1.47995441 8.98543749 0.875 5.3125 C0.70742188 4.31863281 0.53984375 3.32476562 0.3671875 2.30078125 C0.24601562 1.54152344 0.12484375 0.78226563 0 0 Z " fill="#171717" transform="translate(343,222)"/>
<path d="M0 0 C1.10844919 3.32534757 0.84454356 5.62182575 0 9 C-0.66 8.01 -1.32 7.02 -2 6 C-2.99 6 -3.98 6 -5 6 C-3.63016497 2.83884224 -3.0109362 2.0072908 0 0 Z " fill="#1B1B1B" transform="translate(213,199)"/>
<path d="M0 0 C2.64 0 5.28 0 8 0 C8 1.32 8 2.64 8 4 C4 4 4 4 1.75 2 C1.1725 1.34 0.595 0.68 0 0 Z " fill="#D3D3D3" transform="translate(241,155)"/>
<path d="M0 0 C0.33 0.99 0.66 1.98 1 3 C-3.90924297 6.92739438 -6.73920552 7.43177893 -13 7 C-13 6.67 -13 6.34 -13 6 C-12.39671875 5.90203125 -11.7934375 5.8040625 -11.171875 5.703125 C-6.29421718 4.79053096 -3.16176612 4.12404277 0 0 Z " fill="#3C3C3C" transform="translate(270,377)"/>
<path d="M0 0 C1.98 0 3.96 0 6 0 C6 2.97 6 5.94 6 9 C4 8 4 8 3 5.0625 C2.67 4.051875 2.34 3.04125 2 2 C1.34 1.34 0.68 0.68 0 0 Z " fill="#3B3B3B" transform="translate(183,355)"/>
<path d="M0 0 C1.98 0.495 1.98 0.495 4 1 C3.01 1 2.02 1 1 1 C1.33 5.29 1.66 9.58 2 14 C1.34 14 0.68 14 0 14 C-1.03115279 10.73086376 -0.9638984 8.13958652 -0.5625 4.75 C-0.46066406 3.85796875 -0.35882813 2.9659375 -0.25390625 2.046875 C-0.17011719 1.37140625 -0.08632813 0.6959375 0 0 Z " fill="#080808" transform="translate(321,256)"/>
<path d="M0 0 C3.465 1.485 3.465 1.485 7 3 C7 3.66 7 4.32 7 5 C5.02 5 3.04 5 1 5 C0.34 3.68 -0.32 2.36 -1 1 C-0.67 0.67 -0.34 0.34 0 0 Z " fill="#DCDCDC" transform="translate(265,174)"/>
<path d="M0 0 C0.33 0 0.66 0 1 0 C1 2.31 1 4.62 1 7 C1.99 7.33 2.98 7.66 4 8 C1.36 8 -1.28 8 -4 8 C-2.68 5.36 -1.36 2.72 0 0 Z " fill="#2D2D2D" transform="translate(288,337)"/>
<path d="M0 0 C2.64 0 5.28 0 8 0 C7.67 0.99 7.34 1.98 7 3 C4.69 3 2.38 3 0 3 C0 2.01 0 1.02 0 0 Z " fill="#313131" transform="translate(259,188)"/>
<path d="M0 0 C0.66 0 1.32 0 2 0 C2.625 3.375 2.625 3.375 3 7 C2.34 7.66 1.68 8.32 1 9 C-1.125 2.25 -1.125 2.25 0 0 Z " fill="#E1E1E1" transform="translate(277,165)"/>
<path d="M0 0 C1.32 0.33 2.64 0.66 4 1 C4 3.31 4 5.62 4 8 C2.68 8 1.36 8 0 8 C0.66 6.02 1.32 4.04 2 2 C1.34 2 0.68 2 0 2 C0 1.34 0 0.68 0 0 Z " fill="#3F3F3F" transform="translate(346,350)"/>
<path d="M0 0 C0.66 0.33 1.32 0.66 2 1 C1.67 2.65 1.34 4.3 1 6 C-0.32 6 -1.64 6 -3 6 C-2.625 3.5625 -2.625 3.5625 -2 1 C-1.34 0.67 -0.68 0.34 0 0 Z " fill="#3C3839" transform="translate(152,209)"/>
<path d="M0 0 C2.16874252 0.50603992 3.99967627 0.99983813 6 2 C6 2.66 6 3.32 6 4 C3.69 4 1.38 4 -1 4 C-0.67 2.68 -0.34 1.36 0 0 Z " fill="#EEEDED" transform="translate(199,142)"/>
<path d="M0 0 C0.66 0 1.32 0 2 0 C2 2.64 2 5.28 2 8 C0.68 8 -0.64 8 -2 8 C-1.34 5.36 -0.68 2.72 0 0 Z " fill="#404040" transform="translate(302,376)"/>
<path d="M0 0 C0.66 0.33 1.32 0.66 2 1 C2.08159574 5.16138263 1.98248524 8.9472484 1 13 C0.67 13 0.34 13 0 13 C-0.19466332 11.20909747 -0.38051213 9.41723495 -0.5625 7.625 C-0.66691406 6.62726563 -0.77132813 5.62953125 -0.87890625 4.6015625 C-1 2 -1 2 0 0 Z " fill="#191919" transform="translate(259,210)"/>
<path d="M0 0 C3.61855575 0.62388892 4.1709277 1.1709277 7 4 C4.03 4 1.06 4 -2 4 C-1.34 3.67 -0.68 3.34 0 3 C0 2.01 0 1.02 0 0 Z " fill="#181818" transform="translate(329,189)"/>
<path d="M0 0 C5.66153846 2.46153846 5.66153846 2.46153846 7.375 5.1875 C7.58125 5.785625 7.7875 6.38375 8 7 C4.56404834 5.47291037 1.88087546 3.40072955 -1 1 C-0.67 0.67 -0.34 0.34 0 0 Z " fill="#161616" transform="translate(246,141)"/>
<path d="M0 0 C0.33 0 0.66 0 1 0 C1 2.31 1 4.62 1 7 C1.66 7.33 2.32 7.66 3 8 C2.01 8.33 1.02 8.66 0 9 C-0.73323796 11.01508358 -0.73323796 11.01508358 -1 13 C-1.07654536 8.48382401 -1.10228696 4.40914783 0 0 Z " fill="#1B1B1B" transform="translate(218,259)"/>
<path d="M0 0 C0.66 0 1.32 0 2 0 C2.33 2.64 2.66 5.28 3 8 C2.01 8.33 1.02 8.66 0 9 C0 6.03 0 3.06 0 0 Z " fill="#E9E9E9" transform="translate(261,165)"/>
<path d="M0 0 C2.31 0.33 4.62 0.66 7 1 C7 1.99 7 2.98 7 4 C4.625 3.6875 4.625 3.6875 2 3 C1.34 2.01 0.68 1.02 0 0 Z " fill="#E8E8E8" transform="translate(269,160)"/>
<path d="M0 0 C1.32 0.33 2.64 0.66 4 1 C3.67 3.31 3.34 5.62 3 8 C2.01 8 1.02 8 0 8 C0.66 6.02 1.32 4.04 2 2 C1.34 2 0.68 2 0 2 C0 1.34 0 0.68 0 0 Z " fill="#383838" transform="translate(357,350)"/>
<path d="M0 0 C0.268125 0.61875 0.53625 1.2375 0.8125 1.875 C1.95556848 4.2995233 1.95556848 4.2995233 5 6 C2.03 6 -0.94 6 -4 6 C-2.68 4.02 -1.36 2.04 0 0 Z " fill="#1F1F1F" transform="translate(227,339)"/>
<path d="M0 0 C0.33 0 0.66 0 1 0 C2.32286246 4.96073422 2.08893197 9.91111512 2 15 C1.67 15 1.34 15 1 15 C0.8046875 12.98177083 0.609375 10.96354167 0.4140625 8.9453125 C0.13625251 6.77331755 0.13625251 6.77331755 -2 5 C-1.34 5 -0.68 5 0 5 C0 3.35 0 1.7 0 0 Z " fill="#1A1A1A" transform="translate(308,262)"/>
<path d="M0 0 C0.33 0 0.66 0 1 0 C1 4.29 1 8.58 1 13 C0.34 13 -0.32 13 -1 13 C-1.5625 11.0625 -1.5625 11.0625 -2 9 C-1.67 8.67 -1.34 8.34 -1 8 C-0.76924918 6.65252916 -0.58846937 5.29622435 -0.4375 3.9375 C-0.293125 2.638125 -0.14875 1.33875 0 0 Z " fill="#030303" transform="translate(280,154)"/>
<path d="M0 0 C0.66 0.33 1.32 0.66 2 1 C-0.82553984 5.23830976 -3.12180888 4.97715348 -8 6 C-6.625 4.5 -6.625 4.5 -5 3 C-4.34 3 -3.68 3 -3 3 C-3 2.34 -3 1.68 -3 1 C-2.01 0.67 -1.02 0.34 0 0 Z " fill="#D4D4D4" transform="translate(240,130)"/>
<path d="M0 0 C1.32 1.32 2.64 2.64 4 4 C0.98968256 4.93423645 0.13349732 5.04449911 -3 4 C-3 3.34 -3 2.68 -3 2 C-2.01 1.34 -1.02 0.68 0 0 Z " fill="#EEEEEE" transform="translate(141,352)"/>
<path d="M0 0 C1.65 0 3.3 0 5 0 C4.34 1.98 3.68 3.96 3 6 C2.01 5.67 1.02 5.34 0 5 C0 3.35 0 1.7 0 0 Z " fill="#484848" transform="translate(344,274)"/>
<path d="M0 0 C0.99 0.33 1.98 0.66 3 1 C2.34 1 1.68 1 1 1 C0.67 2.65 0.34 4.3 0 6 C-0.66 6 -1.32 6 -2 6 C-2.33 6.99 -2.66 7.98 -3 9 C-2.25 2.25 -2.25 2.25 0 0 Z " fill="#343434" transform="translate(333,202)"/>
<path d="M0 0 C0 0.99 0 1.98 0 3 C-2.64 3 -5.28 3 -8 3 C-8 2.34 -8 1.68 -8 1 C-2.25 0 -2.25 0 0 0 Z " fill="#040404" transform="translate(331,177)"/>
<path d="M0 0 C0.33 0 0.66 0 1 0 C1 3.63 1 7.26 1 11 C0.01 9.68 -0.98 8.36 -2 7 C-1.1875 3.25 -1.1875 3.25 0 0 Z " fill="#212121" transform="translate(182,364)"/>
<path d="M0 0 C0.66 0 1.32 0 2 0 C2.33 2.31 2.66 4.62 3 7 C2.01 7 1.02 7 0 7 C0 4.69 0 2.38 0 0 Z " fill="#1C1C1C" transform="translate(321,270)"/>
<path d="M0 0 C0.33 0 0.66 0 1 0 C1.33 2.64 1.66 5.28 2 8 C1.01 8 0.02 8 -1 8 C-1.625 5.125 -1.625 5.125 -2 2 C-1.34 1.34 -0.68 0.68 0 0 Z " fill="#2C2C2C" transform="translate(333,252)"/>
<path d="M0 0 C0 0.66 0 1.32 0 2 C1.32 2.33 2.64 2.66 4 3 C0.7 3.33 -2.6 3.66 -6 4 C-2.25 0 -2.25 0 0 0 Z " fill="#545152" transform="translate(138,192)"/>
<path d="M0 0 C3.875 4.75 3.875 4.75 5 7 C3.35 7 1.7 7 0 7 C-1.33332095 4.3333581 -0.67102033 2.83319697 0 0 Z " fill="#090909" transform="translate(264,168)"/>
</svg>
